<svg width="65" height="63" viewBox="0 0 65 63" fill="none" xmlns="http://www.w3.org/2000/svg">
<g filter="url(#filter0_d_1257_41010)">
<rect x="10" y="10" width="45" height="43" rx="8" fill="white"/>
<rect x="10.5" y="10.5" width="44" height="42" rx="7.5" stroke="#E9E9E9"/>
<g clip-path="url(#clip0_1257_41010)">
<path d="M34.9706 18.0003L22 30.969L26.0146 34.983L43 18.0003H34.9706Z" fill="#47C5FB"/>
<path d="M34.8804 29.9595L27.9355 36.9033L31.9653 40.9926L35.9725 36.986L43.0002 29.9595H34.8804Z" fill="#47C5FB"/>
<path d="M31.9648 40.9927L35.0154 44.0428H42.9996L35.972 36.986L31.9648 40.9927Z" fill="#00569E"/>
<path d="M27.8896 36.9485L31.9044 32.9343L35.9717 36.9861L31.9646 40.9927L27.8896 36.9485Z" fill="#00B5F8"/>
<path d="M31.9648 40.9927L35.3016 39.8856L35.633 37.325L31.9648 40.9927Z" fill="url(#paint0_linear_1257_41010)" fill-opacity="0.8"/>
</g>
</g>
<defs>
<filter id="filter0_d_1257_41010" x="0" y="0" width="65" height="63" filterUnits="userSpaceOnUse" color-interpolation-filters="sRGB">
<feFlood flood-opacity="0" result="BackgroundImageFix"/>
<feColorMatrix in="SourceAlpha" type="matrix" values="0 0 0 0 0 0 0 0 0 0 0 0 0 0 0 0 0 0 127 0" result="hardAlpha"/>
<feOffset/>
<feGaussianBlur stdDeviation="5"/>
<feComposite in2="hardAlpha" operator="out"/>
<feColorMatrix type="matrix" values="0 0 0 0 0 0 0 0 0 0.709804 0 0 0 0 0.972549 0 0 0 1 0"/>
<feBlend mode="normal" in2="BackgroundImageFix" result="effect1_dropShadow_1257_41010"/>
<feBlend mode="normal" in="SourceGraphic" in2="effect1_dropShadow_1257_41010" result="shape"/>
</filter>
<linearGradient id="paint0_linear_1257_41010" x1="32.1098" y1="38.315" x2="34.7488" y2="39.2661" gradientUnits="userSpaceOnUse">
<stop/>
<stop offset="1" stop-opacity="0"/>
</linearGradient>
<clipPath id="clip0_1257_41010">
<rect width="21" height="26" fill="white" transform="translate(22 18)"/>
</clipPath>
</defs>
</svg>
