<svg width="130" height="148" viewBox="0 0 130 148" fill="none" xmlns="http://www.w3.org/2000/svg">
<path d="M9.99922 16.7727L14.2742 19.4016C14.3851 19.4689 14.5135 19.5019 14.6432 19.4963C14.7728 19.4907 14.8979 19.4467 15.0025 19.3701C15.1072 19.2934 15.1868 19.1874 15.2313 19.0655C15.2758 18.9436 15.2831 18.8113 15.2523 18.6852L14.0898 13.7797L17.8945 10.4985C17.9915 10.4133 18.0615 10.3016 18.0957 10.1771C18.13 10.0526 18.127 9.92087 18.0872 9.79806C18.0474 9.67526 17.9725 9.56679 17.8718 9.48607C17.771 9.40534 17.6488 9.35588 17.5203 9.34379L12.5273 8.93754L10.6039 4.28129C10.5549 4.16117 10.4712 4.05837 10.3635 3.98601C10.2558 3.91365 10.129 3.875 9.99922 3.875C9.86947 3.875 9.74266 3.91365 9.63497 3.98601C9.52727 4.05837 9.44357 4.16117 9.39453 4.28129L7.4711 8.93754L2.47813 9.34379C2.34873 9.35516 2.22554 9.4044 2.12396 9.48537C2.02239 9.56634 1.94692 9.67544 1.90699 9.79905C1.86707 9.92267 1.86445 10.0553 1.89947 10.1804C1.9345 10.3055 2.0056 10.4175 2.10391 10.5024L5.9086 13.7836L4.7461 18.6852C4.71536 18.8113 4.72269 18.9436 4.76716 19.0655C4.81162 19.1874 4.89122 19.2934 4.9959 19.3701C5.10058 19.4467 5.22564 19.4907 5.35528 19.4963C5.48491 19.5019 5.6133 19.4689 5.72422 19.4016L9.99922 16.7727Z" stroke="#21262E" stroke-width="1.66667" stroke-linecap="round" stroke-linejoin="round"/>
<path d="M31.9688 5.625V17H29.8281V5.625H31.9688ZM35.5 5.625V7.32031H26.3359V5.625H35.5ZM39.8359 17.1562C39.1953 17.1562 38.6198 17.0521 38.1094 16.8438C37.599 16.6354 37.1641 16.3464 36.8047 15.9766C36.4505 15.6016 36.1771 15.1667 35.9844 14.6719C35.7969 14.1719 35.7031 13.6354 35.7031 13.0625V12.75C35.7031 12.099 35.7969 11.5078 35.9844 10.9766C36.1719 10.4401 36.4375 9.97917 36.7812 9.59375C37.125 9.20833 37.5365 8.91146 38.0156 8.70312C38.4948 8.49479 39.0234 8.39062 39.6016 8.39062C40.2005 8.39062 40.7292 8.49219 41.1875 8.69531C41.6458 8.89323 42.0286 9.17448 42.3359 9.53906C42.6432 9.90365 42.875 10.3411 43.0312 10.8516C43.1875 11.3568 43.2656 11.9167 43.2656 12.5312V13.3984H36.6406V11.9766H41.2344V11.8203C41.224 11.4922 41.1615 11.1927 41.0469 10.9219C40.9323 10.6458 40.7552 10.4271 40.5156 10.2656C40.276 10.099 39.9661 10.0156 39.5859 10.0156C39.2786 10.0156 39.0104 10.0833 38.7812 10.2188C38.5573 10.349 38.3698 10.5365 38.2188 10.7812C38.0729 11.0208 37.9635 11.3073 37.8906 11.6406C37.8177 11.974 37.7812 12.3438 37.7812 12.75V13.0625C37.7812 13.4167 37.8281 13.7448 37.9219 14.0469C38.0208 14.349 38.1641 14.612 38.3516 14.8359C38.5443 15.0547 38.7734 15.2266 39.0391 15.3516C39.3099 15.4714 39.6172 15.5312 39.9609 15.5312C40.3932 15.5312 40.7839 15.4479 41.1328 15.2812C41.487 15.1094 41.7943 14.8568 42.0547 14.5234L43.0938 15.6016C42.9167 15.862 42.6771 16.112 42.375 16.3516C42.0781 16.5911 41.7188 16.7865 41.2969 16.9375C40.875 17.0833 40.388 17.1562 39.8359 17.1562ZM46.2656 8.54688L47.7734 11.2344L49.3047 8.54688H51.5469L49.0625 12.6875L51.6484 17H49.4062L47.7891 14.1797L46.1641 17H43.9219L46.5 12.6875L44.0312 8.54688H46.2656ZM56.7422 8.54688V10.0312H51.8984V8.54688H56.7422ZM53.1953 6.46875H55.2656V14.5625C55.2656 14.8125 55.2995 15.0052 55.3672 15.1406C55.4349 15.276 55.5365 15.3672 55.6719 15.4141C55.8073 15.4609 55.9688 15.4844 56.1562 15.4844C56.2917 15.4844 56.4167 15.4766 56.5312 15.4609C56.6458 15.4453 56.7422 15.4297 56.8203 15.4141L56.8281 16.9609C56.6562 17.0182 56.4609 17.0651 56.2422 17.1016C56.0286 17.138 55.7865 17.1562 55.5156 17.1562C55.0521 17.1562 54.6458 17.0781 54.2969 16.9219C53.9479 16.7604 53.6771 16.5026 53.4844 16.1484C53.2917 15.7891 53.1953 15.3151 53.1953 14.7266V6.46875ZM64.5469 5.625V17H62.3984V5.625H64.5469ZM68.7344 10.3516V17H66.6719V8.54688H68.6094L68.7344 10.3516ZM68.4062 12.4688H67.7969C67.8021 11.8542 67.8854 11.2969 68.0469 10.7969C68.2083 10.2969 68.4349 9.86719 68.7266 9.50781C69.0234 9.14844 69.375 8.8724 69.7812 8.67969C70.1875 8.48698 70.6406 8.39062 71.1406 8.39062C71.5469 8.39062 71.9141 8.44792 72.2422 8.5625C72.5703 8.67708 72.8516 8.85938 73.0859 9.10938C73.3255 9.35938 73.5078 9.6875 73.6328 10.0938C73.763 10.4948 73.8281 10.9896 73.8281 11.5781V17H71.75V11.5625C71.75 11.1771 71.6927 10.8724 71.5781 10.6484C71.4688 10.4245 71.3073 10.2656 71.0938 10.1719C70.8854 10.0781 70.6276 10.0312 70.3203 10.0312C70.0026 10.0312 69.724 10.0964 69.4844 10.2266C69.25 10.3516 69.0521 10.526 68.8906 10.75C68.7344 10.974 68.6146 11.2318 68.5312 11.5234C68.4479 11.8151 68.4062 12.1302 68.4062 12.4688ZM77.7109 10.1719V20.25H75.6406V8.54688H77.5547L77.7109 10.1719ZM83.1406 12.6875V12.8516C83.1406 13.4661 83.0677 14.0365 82.9219 14.5625C82.7812 15.0833 82.5729 15.5391 82.2969 15.9297C82.0208 16.3151 81.6771 16.6172 81.2656 16.8359C80.8594 17.0495 80.3906 17.1562 79.8594 17.1562C79.3385 17.1562 78.8854 17.0573 78.5 16.8594C78.1146 16.6562 77.7891 16.3698 77.5234 16C77.2578 15.6302 77.0443 15.2005 76.8828 14.7109C76.7266 14.2161 76.6094 13.6771 76.5312 13.0938V12.5703C76.6094 11.9505 76.7266 11.388 76.8828 10.8828C77.0443 10.3724 77.2578 9.93229 77.5234 9.5625C77.7891 9.1875 78.112 8.89844 78.4922 8.69531C78.8776 8.49219 79.3281 8.39062 79.8438 8.39062C80.3802 8.39062 80.8516 8.49219 81.2578 8.69531C81.6693 8.89844 82.0156 9.1901 82.2969 9.57031C82.5781 9.95052 82.7891 10.4036 82.9297 10.9297C83.0703 11.4557 83.1406 12.0417 83.1406 12.6875ZM81.0703 12.8516V12.6875C81.0703 12.3125 81.0365 11.9661 80.9688 11.6484C80.901 11.3255 80.7969 11.0443 80.6562 10.8047C80.5156 10.5599 80.3333 10.3698 80.1094 10.2344C79.8854 10.099 79.6146 10.0312 79.2969 10.0312C78.9792 10.0312 78.7057 10.0833 78.4766 10.1875C78.2474 10.2917 78.0599 10.4401 77.9141 10.6328C77.7682 10.8255 77.6536 11.0547 77.5703 11.3203C77.4922 11.5807 77.4401 11.8698 77.4141 12.1875V13.4844C77.4609 13.8698 77.5521 14.2161 77.6875 14.5234C77.8229 14.8307 78.0208 15.0755 78.2812 15.2578C78.5469 15.4401 78.8906 15.5312 79.3125 15.5312C79.6302 15.5312 79.901 15.4609 80.125 15.3203C80.349 15.1797 80.5312 14.987 80.6719 14.7422C80.8125 14.4922 80.9141 14.2057 80.9766 13.8828C81.0391 13.5599 81.0703 13.2161 81.0703 12.8516ZM89.6797 14.9922V8.54688H91.7578V17H89.8047L89.6797 14.9922ZM89.9453 13.2422L90.5859 13.2266C90.5859 13.7943 90.5234 14.3177 90.3984 14.7969C90.2734 15.276 90.0781 15.6927 89.8125 16.0469C89.5521 16.3958 89.2214 16.6693 88.8203 16.8672C88.4193 17.0599 87.9453 17.1562 87.3984 17.1562C86.9818 17.1562 86.6016 17.099 86.2578 16.9844C85.9141 16.8646 85.6172 16.6797 85.3672 16.4297C85.1224 16.1745 84.9323 15.849 84.7969 15.4531C84.6615 15.0521 84.5938 14.5703 84.5938 14.0078V8.54688H86.6562V14.0234C86.6562 14.3047 86.6875 14.5391 86.75 14.7266C86.8177 14.9141 86.9089 15.0677 87.0234 15.1875C87.1432 15.3021 87.2812 15.3854 87.4375 15.4375C87.599 15.4844 87.7708 15.5078 87.9531 15.5078C88.4531 15.5078 88.8464 15.4089 89.1328 15.2109C89.4245 15.0078 89.6328 14.737 89.7578 14.3984C89.8828 14.0547 89.9453 13.6693 89.9453 13.2422ZM97.5859 8.54688V10.0312H92.7422V8.54688H97.5859ZM94.0391 6.46875H96.1094V14.5625C96.1094 14.8125 96.1432 15.0052 96.2109 15.1406C96.2786 15.276 96.3802 15.3672 96.5156 15.4141C96.651 15.4609 96.8125 15.4844 97 15.4844C97.1354 15.4844 97.2604 15.4766 97.375 15.4609C97.4896 15.4453 97.5859 15.4297 97.6641 15.4141L97.6719 16.9609C97.5 17.0182 97.3047 17.0651 97.0859 17.1016C96.8724 17.138 96.6302 17.1562 96.3594 17.1562C95.8958 17.1562 95.4896 17.0781 95.1406 16.9219C94.7917 16.7604 94.5208 16.5026 94.3281 16.1484C94.1354 15.7891 94.0391 15.3151 94.0391 14.7266V6.46875Z" fill="black"/>
<path d="M104 11.5391L105.641 9.39062L103.219 8.6875L103.633 7.40625L106.039 8.32812L105.93 5.61719H107.289L107.164 8.38281L109.531 7.46094L109.945 8.76562L107.477 9.47656L109.078 11.5781L107.977 12.375L106.531 10.1094L105.109 12.3125L104 11.5391Z" fill="#982A2A"/>
<g clip-path="url(#clip0_419_9481)">
<path d="M0 35.9681C0 31.5674 3.56745 28 7.96811 28H224.032C228.433 28 232 31.5674 232 35.9681V64.0319C232 68.4326 228.433 72 224.032 72H7.9681C3.56744 72 0 68.4326 0 64.0319V35.9681Z" fill="white"/>
</g>
<path d="M7.96777 28.498H224.032C228.158 28.4982 231.502 31.8424 231.502 35.9678V64.0322C231.502 68.1576 228.158 71.5018 224.032 71.502H7.96777C3.84241 71.5018 0.49823 68.1576 0.498047 64.0322V35.9678C0.49823 31.8424 3.84242 28.4982 7.96777 28.498Z" stroke="#C2C7D3" stroke-width="0.996014"/>
<path d="M15 43.25H33V56C33 56.1989 32.921 56.3897 32.7803 56.5303C32.6397 56.671 32.4489 56.75 32.25 56.75H15.75C15.5511 56.75 15.3603 56.671 15.2197 56.5303C15.079 56.3897 15 56.1989 15 56V43.25Z" stroke="#4D535F" stroke-width="2" stroke-linecap="round" stroke-linejoin="round"/>
<path d="M33 43.25L24 51.5L15 43.25" stroke="#4D535F" stroke-width="2" stroke-linecap="round" stroke-linejoin="round"/>
<path d="M49.5156 50.5391H46.4766V49.3125H49.5156C50.1042 49.3125 50.5807 49.2188 50.9453 49.0312C51.3099 48.8438 51.5755 48.5833 51.7422 48.25C51.9141 47.9167 52 47.5365 52 47.1094C52 46.7188 51.9141 46.3516 51.7422 46.0078C51.5755 45.6641 51.3099 45.388 50.9453 45.1797C50.5807 44.9661 50.1042 44.8594 49.5156 44.8594H46.8281V55H45.3203V43.625H49.5156C50.375 43.625 51.1016 43.7734 51.6953 44.0703C52.2891 44.3672 52.7396 44.7786 53.0469 45.3047C53.3542 45.8255 53.5078 46.4219 53.5078 47.0938C53.5078 47.8229 53.3542 48.4453 53.0469 48.9609C52.7396 49.4766 52.2891 49.8698 51.6953 50.1406C51.1016 50.4062 50.375 50.5391 49.5156 50.5391ZM56.7656 43V55H55.3125V43H56.7656ZM64.0703 53.5547V49.2031C64.0703 48.8698 64.0026 48.5807 63.8672 48.3359C63.737 48.0859 63.5391 47.8932 63.2734 47.7578C63.0078 47.6224 62.6797 47.5547 62.2891 47.5547C61.9245 47.5547 61.6042 47.6172 61.3281 47.7422C61.0573 47.8672 60.8438 48.0312 60.6875 48.2344C60.5365 48.4375 60.4609 48.6562 60.4609 48.8906H59.0156C59.0156 48.5885 59.0938 48.2891 59.25 47.9922C59.4062 47.6953 59.6302 47.4271 59.9219 47.1875C60.2188 46.9427 60.5729 46.75 60.9844 46.6094C61.401 46.4635 61.8646 46.3906 62.375 46.3906C62.9896 46.3906 63.5312 46.4948 64 46.7031C64.474 46.9115 64.8438 47.2266 65.1094 47.6484C65.3802 48.0651 65.5156 48.5885 65.5156 49.2188V53.1562C65.5156 53.4375 65.5391 53.737 65.5859 54.0547C65.638 54.3724 65.7135 54.6458 65.8125 54.875V55H64.3047C64.2318 54.8333 64.1745 54.612 64.1328 54.3359C64.0911 54.0547 64.0703 53.7943 64.0703 53.5547ZM64.3203 49.875L64.3359 50.8906H62.875C62.4635 50.8906 62.0964 50.9245 61.7734 50.9922C61.4505 51.0547 61.1797 51.151 60.9609 51.2812C60.7422 51.4115 60.5755 51.5755 60.4609 51.7734C60.3464 51.9661 60.2891 52.1927 60.2891 52.4531C60.2891 52.7188 60.349 52.9609 60.4688 53.1797C60.5885 53.3984 60.7682 53.5729 61.0078 53.7031C61.2526 53.8281 61.5521 53.8906 61.9062 53.8906C62.349 53.8906 62.7396 53.7969 63.0781 53.6094C63.4167 53.4219 63.6849 53.1927 63.8828 52.9219C64.0859 52.651 64.1953 52.388 64.2109 52.1328L64.8281 52.8281C64.7917 53.0469 64.6927 53.2891 64.5312 53.5547C64.3698 53.8203 64.1536 54.0755 63.8828 54.3203C63.6172 54.5599 63.2995 54.7604 62.9297 54.9219C62.5651 55.0781 62.1536 55.1562 61.6953 55.1562C61.1224 55.1562 60.6198 55.0443 60.1875 54.8203C59.7604 54.5964 59.4271 54.2969 59.1875 53.9219C58.9531 53.5417 58.8359 53.1172 58.8359 52.6484C58.8359 52.1953 58.9245 51.7969 59.1016 51.4531C59.2786 51.1042 59.5339 50.8151 59.8672 50.5859C60.2005 50.3516 60.6016 50.1745 61.0703 50.0547C61.5391 49.9349 62.0625 49.875 62.6406 49.875H64.3203ZM71.1719 53.9688C71.5156 53.9688 71.8333 53.8984 72.125 53.7578C72.4167 53.6172 72.6562 53.4245 72.8438 53.1797C73.0312 52.9297 73.138 52.6458 73.1641 52.3281H74.5391C74.513 52.8281 74.3438 53.2943 74.0312 53.7266C73.724 54.1536 73.3203 54.5 72.8203 54.7656C72.3203 55.026 71.7708 55.1562 71.1719 55.1562C70.5365 55.1562 69.9818 55.0443 69.5078 54.8203C69.0391 54.5964 68.6484 54.2891 68.3359 53.8984C68.0286 53.5078 67.7969 53.0599 67.6406 52.5547C67.4896 52.0443 67.4141 51.5052 67.4141 50.9375V50.6094C67.4141 50.0417 67.4896 49.5052 67.6406 49C67.7969 48.4896 68.0286 48.0391 68.3359 47.6484C68.6484 47.2578 69.0391 46.9505 69.5078 46.7266C69.9818 46.5026 70.5365 46.3906 71.1719 46.3906C71.8333 46.3906 72.4115 46.526 72.9062 46.7969C73.401 47.0625 73.7891 47.4271 74.0703 47.8906C74.3568 48.349 74.513 48.8698 74.5391 49.4531H73.1641C73.138 49.1042 73.0391 48.7891 72.8672 48.5078C72.7005 48.2266 72.4714 48.0026 72.1797 47.8359C71.8932 47.6641 71.5573 47.5781 71.1719 47.5781C70.7292 47.5781 70.3568 47.6667 70.0547 47.8438C69.7578 48.0156 69.5208 48.25 69.3438 48.5469C69.1719 48.8385 69.0469 49.1641 68.9688 49.5234C68.8958 49.8776 68.8594 50.2396 68.8594 50.6094V50.9375C68.8594 51.3073 68.8958 51.6719 68.9688 52.0312C69.0417 52.3906 69.1641 52.7161 69.3359 53.0078C69.513 53.2995 69.75 53.5339 70.0469 53.7109C70.349 53.8828 70.724 53.9688 71.1719 53.9688ZM79.6719 55.1562C79.0833 55.1562 78.5495 55.0573 78.0703 54.8594C77.5964 54.6562 77.1875 54.3724 76.8438 54.0078C76.5052 53.6432 76.2448 53.2109 76.0625 52.7109C75.8802 52.2109 75.7891 51.6641 75.7891 51.0703V50.7422C75.7891 50.0547 75.8906 49.4427 76.0938 48.9062C76.2969 48.3646 76.5729 47.9062 76.9219 47.5312C77.2708 47.1562 77.6667 46.8724 78.1094 46.6797C78.5521 46.487 79.0104 46.3906 79.4844 46.3906C80.0885 46.3906 80.6094 46.4948 81.0469 46.7031C81.4896 46.9115 81.8516 47.2031 82.1328 47.5781C82.4141 47.9479 82.6224 48.3854 82.7578 48.8906C82.8932 49.3906 82.9609 49.9375 82.9609 50.5312V51.1797H76.6484V50H81.5156V49.8906C81.4948 49.5156 81.4167 49.151 81.2812 48.7969C81.151 48.4427 80.9427 48.151 80.6562 47.9219C80.3698 47.6927 79.9792 47.5781 79.4844 47.5781C79.1562 47.5781 78.8542 47.6484 78.5781 47.7891C78.3021 47.9245 78.0651 48.1276 77.8672 48.3984C77.6693 48.6693 77.5156 49 77.4062 49.3906C77.2969 49.7812 77.2422 50.2318 77.2422 50.7422V51.0703C77.2422 51.4714 77.2969 51.849 77.4062 52.2031C77.5208 52.5521 77.6849 52.8594 77.8984 53.125C78.1172 53.3906 78.3802 53.599 78.6875 53.75C79 53.901 79.3542 53.9766 79.75 53.9766C80.2604 53.9766 80.6927 53.8724 81.0469 53.6641C81.401 53.4557 81.7109 53.1771 81.9766 52.8281L82.8516 53.5234C82.6693 53.7995 82.4375 54.0625 82.1562 54.3125C81.875 54.5625 81.5286 54.7656 81.1172 54.9219C80.7109 55.0781 80.2292 55.1562 79.6719 55.1562ZM86.0938 43V55H84.6484V43H86.0938ZM85.75 50.4531L85.1484 50.4297C85.1536 49.8516 85.2396 49.3177 85.4062 48.8281C85.5729 48.3333 85.8073 47.9036 86.1094 47.5391C86.4115 47.1745 86.7708 46.8932 87.1875 46.6953C87.6094 46.4922 88.0755 46.3906 88.5859 46.3906C89.0026 46.3906 89.3776 46.4479 89.7109 46.5625C90.0443 46.6719 90.3281 46.849 90.5625 47.0938C90.8021 47.3385 90.9844 47.6562 91.1094 48.0469C91.2344 48.4323 91.2969 48.9036 91.2969 49.4609V55H89.8438V49.4453C89.8438 49.0026 89.7786 48.6484 89.6484 48.3828C89.5182 48.112 89.3281 47.9167 89.0781 47.7969C88.8281 47.6719 88.5208 47.6094 88.1562 47.6094C87.7969 47.6094 87.4688 47.6849 87.1719 47.8359C86.8802 47.987 86.6276 48.1953 86.4141 48.4609C86.2057 48.7266 86.0417 49.0312 85.9219 49.375C85.8073 49.7135 85.75 50.0729 85.75 50.4531ZM93.0781 50.8672V50.6875C93.0781 50.0781 93.1667 49.513 93.3438 48.9922C93.5208 48.4661 93.776 48.0104 94.1094 47.625C94.4427 47.2344 94.8464 46.9323 95.3203 46.7188C95.7943 46.5 96.3255 46.3906 96.9141 46.3906C97.5078 46.3906 98.0417 46.5 98.5156 46.7188C98.9948 46.9323 99.401 47.2344 99.7344 47.625C100.073 48.0104 100.331 48.4661 100.508 48.9922C100.685 49.513 100.773 50.0781 100.773 50.6875V50.8672C100.773 51.4766 100.685 52.0417 100.508 52.5625C100.331 53.0833 100.073 53.5391 99.7344 53.9297C99.401 54.3151 98.9974 54.6172 98.5234 54.8359C98.0547 55.0495 97.5234 55.1562 96.9297 55.1562C96.3359 55.1562 95.8021 55.0495 95.3281 54.8359C94.8542 54.6172 94.4479 54.3151 94.1094 53.9297C93.776 53.5391 93.5208 53.0833 93.3438 52.5625C93.1667 52.0417 93.0781 51.4766 93.0781 50.8672ZM94.5234 50.6875V50.8672C94.5234 51.2891 94.5729 51.6875 94.6719 52.0625C94.7708 52.4323 94.9193 52.7604 95.1172 53.0469C95.3203 53.3333 95.5729 53.5599 95.875 53.7266C96.1771 53.888 96.5286 53.9688 96.9297 53.9688C97.3255 53.9688 97.6719 53.888 97.9688 53.7266C98.2708 53.5599 98.5208 53.3333 98.7188 53.0469C98.9167 52.7604 99.0651 52.4323 99.1641 52.0625C99.2682 51.6875 99.3203 51.2891 99.3203 50.8672V50.6875C99.3203 50.2708 99.2682 49.8776 99.1641 49.5078C99.0651 49.1328 98.9141 48.8021 98.7109 48.5156C98.513 48.224 98.263 47.9948 97.9609 47.8281C97.6641 47.6615 97.3151 47.5781 96.9141 47.5781C96.5182 47.5781 96.1693 47.6615 95.8672 47.8281C95.5703 47.9948 95.3203 48.224 95.1172 48.5156C94.9193 48.8021 94.7708 49.1328 94.6719 49.5078C94.5729 49.8776 94.5234 50.2708 94.5234 50.6875ZM104.156 43V55H102.703V43H104.156ZM111.805 53.3594V43H113.258V55H111.93L111.805 53.3594ZM106.117 50.8672V50.7031C106.117 50.0573 106.195 49.4714 106.352 48.9453C106.513 48.4141 106.74 47.9583 107.031 47.5781C107.328 47.1979 107.68 46.9062 108.086 46.7031C108.497 46.4948 108.956 46.3906 109.461 46.3906C109.992 46.3906 110.456 46.4844 110.852 46.6719C111.253 46.8542 111.591 47.1224 111.867 47.4766C112.148 47.8255 112.37 48.2474 112.531 48.7422C112.693 49.237 112.805 49.7969 112.867 50.4219V51.1406C112.81 51.7604 112.698 52.3177 112.531 52.8125C112.37 53.3073 112.148 53.7292 111.867 54.0781C111.591 54.4271 111.253 54.6953 110.852 54.8828C110.451 55.0651 109.982 55.1562 109.445 55.1562C108.951 55.1562 108.497 55.0495 108.086 54.8359C107.68 54.6224 107.328 54.3229 107.031 53.9375C106.74 53.5521 106.513 53.099 106.352 52.5781C106.195 52.0521 106.117 51.4818 106.117 50.8672ZM107.57 50.7031V50.8672C107.57 51.2891 107.612 51.6849 107.695 52.0547C107.784 52.4245 107.919 52.75 108.102 53.0312C108.284 53.3125 108.516 53.5339 108.797 53.6953C109.078 53.8516 109.414 53.9297 109.805 53.9297C110.284 53.9297 110.677 53.8281 110.984 53.625C111.297 53.4219 111.547 53.1536 111.734 52.8203C111.922 52.487 112.068 52.125 112.172 51.7344V49.8516C112.109 49.5651 112.018 49.2891 111.898 49.0234C111.784 48.7526 111.633 48.513 111.445 48.3047C111.263 48.0911 111.036 47.9219 110.766 47.7969C110.5 47.6719 110.185 47.6094 109.82 47.6094C109.424 47.6094 109.083 47.6927 108.797 47.8594C108.516 48.0208 108.284 48.2448 108.102 48.5312C107.919 48.8125 107.784 49.1406 107.695 49.5156C107.612 49.8854 107.57 50.2812 107.57 50.7031ZM119.016 55.1562C118.427 55.1562 117.893 55.0573 117.414 54.8594C116.94 54.6562 116.531 54.3724 116.188 54.0078C115.849 53.6432 115.589 53.2109 115.406 52.7109C115.224 52.2109 115.133 51.6641 115.133 51.0703V50.7422C115.133 50.0547 115.234 49.4427 115.438 48.9062C115.641 48.3646 115.917 47.9062 116.266 47.5312C116.615 47.1562 117.01 46.8724 117.453 46.6797C117.896 46.487 118.354 46.3906 118.828 46.3906C119.432 46.3906 119.953 46.4948 120.391 46.7031C120.833 46.9115 121.195 47.2031 121.477 47.5781C121.758 47.9479 121.966 48.3854 122.102 48.8906C122.237 49.3906 122.305 49.9375 122.305 50.5312V51.1797H115.992V50H120.859V49.8906C120.839 49.5156 120.76 49.151 120.625 48.7969C120.495 48.4427 120.286 48.151 120 47.9219C119.714 47.6927 119.323 47.5781 118.828 47.5781C118.5 47.5781 118.198 47.6484 117.922 47.7891C117.646 47.9245 117.409 48.1276 117.211 48.3984C117.013 48.6693 116.859 49 116.75 49.3906C116.641 49.7812 116.586 50.2318 116.586 50.7422V51.0703C116.586 51.4714 116.641 51.849 116.75 52.2031C116.865 52.5521 117.029 52.8594 117.242 53.125C117.461 53.3906 117.724 53.599 118.031 53.75C118.344 53.901 118.698 53.9766 119.094 53.9766C119.604 53.9766 120.036 53.8724 120.391 53.6641C120.745 53.4557 121.055 53.1771 121.32 52.8281L122.195 53.5234C122.013 53.7995 121.781 54.0625 121.5 54.3125C121.219 54.5625 120.872 54.7656 120.461 54.9219C120.055 55.0781 119.573 55.1562 119.016 55.1562ZM125.438 47.875V55H123.992V46.5469H125.398L125.438 47.875ZM128.078 46.5L128.07 47.8438C127.951 47.8177 127.836 47.8021 127.727 47.7969C127.622 47.7865 127.503 47.7812 127.367 47.7812C127.034 47.7812 126.74 47.8333 126.484 47.9375C126.229 48.0417 126.013 48.1875 125.836 48.375C125.659 48.5625 125.518 48.7865 125.414 49.0469C125.315 49.3021 125.25 49.5833 125.219 49.8906L124.812 50.125C124.812 49.6146 124.862 49.1354 124.961 48.6875C125.065 48.2396 125.224 47.8438 125.438 47.5C125.651 47.151 125.922 46.8802 126.25 46.6875C126.583 46.4896 126.979 46.3906 127.438 46.3906C127.542 46.3906 127.661 46.4036 127.797 46.4297C127.932 46.4505 128.026 46.474 128.078 46.5Z" fill="#4D535F"/>
<path d="M9.99922 92.7727L14.2742 95.4016C14.3851 95.4689 14.5135 95.5019 14.6432 95.4963C14.7728 95.4907 14.8979 95.4467 15.0025 95.3701C15.1072 95.2934 15.1868 95.1874 15.2313 95.0655C15.2758 94.9436 15.2831 94.8113 15.2523 94.6852L14.0898 89.7797L17.8945 86.4985C17.9915 86.4133 18.0615 86.3016 18.0957 86.1771C18.13 86.0526 18.127 85.9209 18.0872 85.7981C18.0474 85.6753 17.9725 85.5668 17.8718 85.4861C17.771 85.4053 17.6488 85.3559 17.5203 85.3438L12.5273 84.9375L10.6039 80.2813C10.5549 80.1612 10.4712 80.0584 10.3635 79.986C10.2558 79.9136 10.129 79.875 9.99922 79.875C9.86947 79.875 9.74266 79.9136 9.63497 79.986C9.52727 80.0584 9.44357 80.1612 9.39453 80.2813L7.4711 84.9375L2.47813 85.3438C2.34873 85.3552 2.22554 85.4044 2.12396 85.4854C2.02239 85.5663 1.94692 85.6754 1.90699 85.7991C1.86707 85.9227 1.86445 86.0553 1.89947 86.1804C1.9345 86.3055 2.0056 86.4175 2.10391 86.5024L5.9086 89.7836L4.7461 94.6852C4.71536 94.8113 4.72269 94.9436 4.76716 95.0655C4.81162 95.1874 4.89122 95.2934 4.9959 95.3701C5.10058 95.4467 5.22564 95.4907 5.35528 95.4963C5.48491 95.5019 5.6133 95.4689 5.72422 95.4016L9.99922 92.7727Z" stroke="#21262E" stroke-width="1.66667" stroke-linecap="round" stroke-linejoin="round"/>
<path d="M31.4609 88.8516H28.5312V87.1641H31.4609C31.9401 87.1641 32.3281 87.0859 32.625 86.9297C32.9271 86.7682 33.1484 86.5495 33.2891 86.2734C33.4297 85.9922 33.5 85.6719 33.5 85.3125C33.5 84.9635 33.4297 84.638 33.2891 84.3359C33.1484 84.0339 32.9271 83.7891 32.625 83.6016C32.3281 83.4141 31.9401 83.3203 31.4609 83.3203H29.2344V93H27.0859V81.625H31.4609C32.3464 81.625 33.1016 81.7839 33.7266 82.1016C34.3568 82.4141 34.8359 82.849 35.1641 83.4062C35.4974 83.9583 35.6641 84.5885 35.6641 85.2969C35.6641 86.0312 35.4974 86.6641 35.1641 87.1953C34.8359 87.7266 34.3568 88.1354 33.7266 88.4219C33.1016 88.7083 32.3464 88.8516 31.4609 88.8516ZM41.7578 91.2031V87.3047C41.7578 87.0182 41.7083 86.7708 41.6094 86.5625C41.5104 86.3542 41.3594 86.1927 41.1562 86.0781C40.9531 85.9635 40.6953 85.9062 40.3828 85.9062C40.1068 85.9062 39.8646 85.9531 39.6562 86.0469C39.4531 86.1406 39.2969 86.2734 39.1875 86.4453C39.0781 86.612 39.0234 86.8047 39.0234 87.0234H36.9531C36.9531 86.6745 37.0365 86.3438 37.2031 86.0312C37.3698 85.7135 37.6068 85.4323 37.9141 85.1875C38.2266 84.9375 38.599 84.7422 39.0312 84.6016C39.4688 84.4609 39.9583 84.3906 40.5 84.3906C41.1406 84.3906 41.7109 84.5 42.2109 84.7188C42.7161 84.9323 43.112 85.2552 43.3984 85.6875C43.6901 86.1198 43.8359 86.6641 43.8359 87.3203V91.0078C43.8359 91.4297 43.862 91.7917 43.9141 92.0938C43.9714 92.3906 44.0547 92.6484 44.1641 92.8672V93H42.0625C41.9635 92.7865 41.888 92.5156 41.8359 92.1875C41.7839 91.8542 41.7578 91.526 41.7578 91.2031ZM42.0469 87.8516L42.0625 89.0781H40.7578C40.4349 89.0781 40.151 89.112 39.9062 89.1797C39.6615 89.2422 39.4609 89.3359 39.3047 89.4609C39.1484 89.5807 39.0312 89.7266 38.9531 89.8984C38.875 90.0651 38.8359 90.2552 38.8359 90.4688C38.8359 90.6771 38.8828 90.8646 38.9766 91.0312C39.0755 91.1979 39.2161 91.3307 39.3984 91.4297C39.5859 91.5234 39.8047 91.5703 40.0547 91.5703C40.4193 91.5703 40.737 91.4974 41.0078 91.3516C41.2786 91.2005 41.4896 91.0182 41.6406 90.8047C41.7917 90.5911 41.8724 90.388 41.8828 90.1953L42.4766 91.0859C42.4036 91.2995 42.2943 91.526 42.1484 91.7656C42.0026 92.0052 41.8151 92.2292 41.5859 92.4375C41.3568 92.6458 41.0807 92.8177 40.7578 92.9531C40.4349 93.0885 40.0599 93.1562 39.6328 93.1562C39.0859 93.1562 38.5964 93.0469 38.1641 92.8281C37.7318 92.6094 37.3906 92.3099 37.1406 91.9297C36.8906 91.5495 36.7656 91.1172 36.7656 90.6328C36.7656 90.1849 36.849 89.7891 37.0156 89.4453C37.1823 89.1016 37.4297 88.8125 37.7578 88.5781C38.0859 88.3385 38.4922 88.1589 38.9766 88.0391C39.4661 87.9141 40.026 87.8516 40.6562 87.8516H42.0469ZM50.3438 90.6875C50.3438 90.5104 50.2969 90.3516 50.2031 90.2109C50.1094 90.0703 49.9323 89.9427 49.6719 89.8281C49.4167 89.7083 49.0417 89.5964 48.5469 89.4922C48.1094 89.3984 47.7057 89.2812 47.3359 89.1406C46.9661 89 46.6484 88.8307 46.3828 88.6328C46.1172 88.4297 45.9089 88.1927 45.7578 87.9219C45.612 87.6458 45.5391 87.3281 45.5391 86.9688C45.5391 86.6198 45.6146 86.2917 45.7656 85.9844C45.9167 85.6719 46.1354 85.3984 46.4219 85.1641C46.7083 84.9245 47.0573 84.737 47.4688 84.6016C47.8802 84.4609 48.3438 84.3906 48.8594 84.3906C49.5781 84.3906 50.1953 84.5078 50.7109 84.7422C51.2318 84.9766 51.6302 85.2995 51.9062 85.7109C52.1823 86.1172 52.3203 86.5755 52.3203 87.0859H50.2578C50.2578 86.862 50.2057 86.6589 50.1016 86.4766C50.0026 86.2943 49.849 86.1484 49.6406 86.0391C49.4323 85.9245 49.1693 85.8672 48.8516 85.8672C48.5651 85.8672 48.3229 85.9141 48.125 86.0078C47.9323 86.1016 47.7865 86.224 47.6875 86.375C47.5885 86.526 47.5391 86.6927 47.5391 86.875C47.5391 87.0104 47.5651 87.1328 47.6172 87.2422C47.6745 87.3464 47.7656 87.4427 47.8906 87.5312C48.0156 87.6198 48.1849 87.7005 48.3984 87.7734C48.6172 87.8464 48.8854 87.9167 49.2031 87.9844C49.8333 88.1094 50.3828 88.276 50.8516 88.4844C51.3255 88.6875 51.6953 88.9583 51.9609 89.2969C52.2266 89.6354 52.3594 90.0677 52.3594 90.5938C52.3594 90.9688 52.2786 91.3125 52.1172 91.625C51.9557 91.9323 51.7214 92.2005 51.4141 92.4297C51.1068 92.6589 50.7396 92.8385 50.3125 92.9688C49.8854 93.0938 49.4036 93.1562 48.8672 93.1562C48.0911 93.1562 47.4349 93.0182 46.8984 92.7422C46.362 92.4609 45.9557 92.1068 45.6797 91.6797C45.4036 91.2474 45.2656 90.7995 45.2656 90.3359H47.2422C47.2578 90.6641 47.3464 90.9271 47.5078 91.125C47.6693 91.3229 47.8724 91.4661 48.1172 91.5547C48.3672 91.638 48.6302 91.6797 48.9062 91.6797C49.2188 91.6797 49.4818 91.638 49.6953 91.5547C49.9089 91.4661 50.0703 91.349 50.1797 91.2031C50.2891 91.0521 50.3438 90.8802 50.3438 90.6875ZM58.5781 90.6875C58.5781 90.5104 58.5312 90.3516 58.4375 90.2109C58.3438 90.0703 58.1667 89.9427 57.9062 89.8281C57.651 89.7083 57.276 89.5964 56.7812 89.4922C56.3438 89.3984 55.9401 89.2812 55.5703 89.1406C55.2005 89 54.8828 88.8307 54.6172 88.6328C54.3516 88.4297 54.1432 88.1927 53.9922 87.9219C53.8464 87.6458 53.7734 87.3281 53.7734 86.9688C53.7734 86.6198 53.849 86.2917 54 85.9844C54.151 85.6719 54.3698 85.3984 54.6562 85.1641C54.9427 84.9245 55.2917 84.737 55.7031 84.6016C56.1146 84.4609 56.5781 84.3906 57.0938 84.3906C57.8125 84.3906 58.4297 84.5078 58.9453 84.7422C59.4661 84.9766 59.8646 85.2995 60.1406 85.7109C60.4167 86.1172 60.5547 86.5755 60.5547 87.0859H58.4922C58.4922 86.862 58.4401 86.6589 58.3359 86.4766C58.237 86.2943 58.0833 86.1484 57.875 86.0391C57.6667 85.9245 57.4036 85.8672 57.0859 85.8672C56.7995 85.8672 56.5573 85.9141 56.3594 86.0078C56.1667 86.1016 56.0208 86.224 55.9219 86.375C55.8229 86.526 55.7734 86.6927 55.7734 86.875C55.7734 87.0104 55.7995 87.1328 55.8516 87.2422C55.9089 87.3464 56 87.4427 56.125 87.5312C56.25 87.6198 56.4193 87.7005 56.6328 87.7734C56.8516 87.8464 57.1198 87.9167 57.4375 87.9844C58.0677 88.1094 58.6172 88.276 59.0859 88.4844C59.5599 88.6875 59.9297 88.9583 60.1953 89.2969C60.4609 89.6354 60.5938 90.0677 60.5938 90.5938C60.5938 90.9688 60.513 91.3125 60.3516 91.625C60.1901 91.9323 59.9557 92.2005 59.6484 92.4297C59.3411 92.6589 58.974 92.8385 58.5469 92.9688C58.1198 93.0938 57.638 93.1562 57.1016 93.1562C56.3255 93.1562 55.6693 93.0182 55.1328 92.7422C54.5964 92.4609 54.1901 92.1068 53.9141 91.6797C53.638 91.2474 53.5 90.7995 53.5 90.3359H55.4766C55.4922 90.6641 55.5807 90.9271 55.7422 91.125C55.9036 91.3229 56.1068 91.4661 56.3516 91.5547C56.6016 91.638 56.8646 91.6797 57.1406 91.6797C57.4531 91.6797 57.7161 91.638 57.9297 91.5547C58.1432 91.4661 58.3047 91.349 58.4141 91.2031C58.5234 91.0521 58.5781 90.8802 58.5781 90.6875ZM64.5156 90.9688L66.3672 84.5469H67.6797L67.2891 86.7656L65.4219 93H64.2891L64.5156 90.9688ZM63.4922 84.5469L64.8828 90.9844L65.0078 93H63.7031L61.4844 84.5469H63.4922ZM69.3984 90.8906L70.7578 84.5469H72.7578L70.5547 93H69.25L69.3984 90.8906ZM67.8828 84.5469L69.7188 90.9062L69.9609 93H68.8281L66.9453 86.7656L66.5625 84.5469H67.8828ZM73.6094 88.8594V88.6953C73.6094 88.0755 73.6979 87.5052 73.875 86.9844C74.0521 86.4583 74.3099 86.0026 74.6484 85.6172C74.987 85.2318 75.401 84.9323 75.8906 84.7188C76.3802 84.5 76.9375 84.3906 77.5625 84.3906C78.1979 84.3906 78.7604 84.5 79.25 84.7188C79.7448 84.9323 80.1615 85.2318 80.5 85.6172C80.8385 86.0026 81.0964 86.4583 81.2734 86.9844C81.4505 87.5052 81.5391 88.0755 81.5391 88.6953V88.8594C81.5391 89.474 81.4505 90.0443 81.2734 90.5703C81.0964 91.0911 80.8385 91.5469 80.5 91.9375C80.1615 92.3229 79.7474 92.6224 79.2578 92.8359C78.7682 93.0495 78.2083 93.1562 77.5781 93.1562C76.9531 93.1562 76.3932 93.0495 75.8984 92.8359C75.4036 92.6224 74.987 92.3229 74.6484 91.9375C74.3099 91.5469 74.0521 91.0911 73.875 90.5703C73.6979 90.0443 73.6094 89.474 73.6094 88.8594ZM75.6719 88.6953V88.8594C75.6719 89.2292 75.7083 89.5755 75.7812 89.8984C75.8542 90.2214 75.9661 90.5052 76.1172 90.75C76.2682 90.9948 76.4635 91.1875 76.7031 91.3281C76.9479 91.4635 77.2396 91.5312 77.5781 91.5312C77.9115 91.5312 78.1979 91.4635 78.4375 91.3281C78.6771 91.1875 78.8724 90.9948 79.0234 90.75C79.1797 90.5052 79.2943 90.2214 79.3672 89.8984C79.4401 89.5755 79.4766 89.2292 79.4766 88.8594V88.6953C79.4766 88.3307 79.4401 87.9896 79.3672 87.6719C79.2943 87.349 79.1797 87.0651 79.0234 86.8203C78.8724 86.5703 78.6745 86.375 78.4297 86.2344C78.1901 86.0885 77.901 86.0156 77.5625 86.0156C77.2292 86.0156 76.9427 86.0885 76.7031 86.2344C76.4635 86.375 76.2682 86.5703 76.1172 86.8203C75.9661 87.0651 75.8542 87.349 75.7812 87.6719C75.7083 87.9896 75.6719 88.3307 75.6719 88.6953ZM85.1016 86.2734V93H83.0391V84.5469H84.9922L85.1016 86.2734ZM87.6719 84.4922L87.6406 86.4141C87.526 86.3932 87.3958 86.3776 87.25 86.3672C87.1094 86.3568 86.9766 86.3516 86.8516 86.3516C86.5339 86.3516 86.2552 86.3958 86.0156 86.4844C85.776 86.5677 85.5755 86.6901 85.4141 86.8516C85.2578 87.013 85.138 87.2109 85.0547 87.4453C84.9714 87.6745 84.9245 87.9349 84.9141 88.2266L84.4688 88.1719C84.4688 87.6354 84.5234 87.138 84.6328 86.6797C84.7422 86.2214 84.901 85.8203 85.1094 85.4766C85.3177 85.1328 85.5781 84.8672 85.8906 84.6797C86.2083 84.487 86.5729 84.3906 86.9844 84.3906C87.099 84.3906 87.2214 84.401 87.3516 84.4219C87.487 84.4375 87.5938 84.4609 87.6719 84.4922ZM93.7188 91.2031V81H95.7969V93H93.9219L93.7188 91.2031ZM88.2891 88.875V88.7109C88.2891 88.0651 88.362 87.4792 88.5078 86.9531C88.6589 86.4219 88.8776 85.9661 89.1641 85.5859C89.4505 85.2057 89.7969 84.9115 90.2031 84.7031C90.6146 84.4948 91.0807 84.3906 91.6016 84.3906C92.1068 84.3906 92.5469 84.4922 92.9219 84.6953C93.3021 84.8984 93.625 85.1875 93.8906 85.5625C94.1615 85.9375 94.3776 86.3828 94.5391 86.8984C94.7005 87.4089 94.8177 87.9714 94.8906 88.5859V89.0312C94.8177 89.6302 94.7005 90.1797 94.5391 90.6797C94.3776 91.1797 94.1615 91.6172 93.8906 91.9922C93.625 92.362 93.3021 92.6484 92.9219 92.8516C92.5417 93.0547 92.0964 93.1562 91.5859 93.1562C91.0703 93.1562 90.6068 93.0495 90.1953 92.8359C89.7891 92.6224 89.4427 92.3229 89.1562 91.9375C88.875 91.5521 88.6589 91.099 88.5078 90.5781C88.362 90.0573 88.2891 89.4896 88.2891 88.875ZM90.3594 88.7109V88.875C90.3594 89.2396 90.3906 89.5807 90.4531 89.8984C90.5156 90.2161 90.6172 90.4974 90.7578 90.7422C90.8984 90.9818 91.0781 91.1693 91.2969 91.3047C91.5208 91.4401 91.7917 91.5078 92.1094 91.5078C92.5156 91.5078 92.849 91.4193 93.1094 91.2422C93.375 91.0599 93.5807 90.8125 93.7266 90.5C93.8724 90.1823 93.9661 89.8255 94.0078 89.4297V88.2031C93.987 87.8906 93.9323 87.6016 93.8438 87.3359C93.7604 87.0703 93.6406 86.8411 93.4844 86.6484C93.3333 86.4557 93.1458 86.3047 92.9219 86.1953C92.6979 86.0859 92.4323 86.0312 92.125 86.0312C91.8073 86.0312 91.5365 86.1016 91.3125 86.2422C91.0885 86.3776 90.9062 86.5677 90.7656 86.8125C90.625 87.0573 90.5208 87.3411 90.4531 87.6641C90.3906 87.987 90.3594 88.3359 90.3594 88.7109ZM104.094 81.625V93H101.945V81.625H104.094ZM108.281 86.3516V93H106.219V84.5469H108.156L108.281 86.3516ZM107.953 88.4688H107.344C107.349 87.8542 107.432 87.2969 107.594 86.7969C107.755 86.2969 107.982 85.8672 108.273 85.5078C108.57 85.1484 108.922 84.8724 109.328 84.6797C109.734 84.487 110.188 84.3906 110.688 84.3906C111.094 84.3906 111.461 84.4479 111.789 84.5625C112.117 84.6771 112.398 84.8594 112.633 85.1094C112.872 85.3594 113.055 85.6875 113.18 86.0938C113.31 86.4948 113.375 86.9896 113.375 87.5781V93H111.297V87.5625C111.297 87.1771 111.24 86.8724 111.125 86.6484C111.016 86.4245 110.854 86.2656 110.641 86.1719C110.432 86.0781 110.174 86.0312 109.867 86.0312C109.549 86.0312 109.271 86.0964 109.031 86.2266C108.797 86.3516 108.599 86.526 108.438 86.75C108.281 86.974 108.161 87.2318 108.078 87.5234C107.995 87.8151 107.953 88.1302 107.953 88.4688ZM117.258 86.1719V96.25H115.188V84.5469H117.102L117.258 86.1719ZM122.688 88.6875V88.8516C122.688 89.4661 122.615 90.0365 122.469 90.5625C122.328 91.0833 122.12 91.5391 121.844 91.9297C121.568 92.3151 121.224 92.6172 120.812 92.8359C120.406 93.0495 119.938 93.1562 119.406 93.1562C118.885 93.1562 118.432 93.0573 118.047 92.8594C117.661 92.6562 117.336 92.3698 117.07 92C116.805 91.6302 116.591 91.2005 116.43 90.7109C116.273 90.2161 116.156 89.6771 116.078 89.0938V88.5703C116.156 87.9505 116.273 87.388 116.43 86.8828C116.591 86.3724 116.805 85.9323 117.07 85.5625C117.336 85.1875 117.659 84.8984 118.039 84.6953C118.424 84.4922 118.875 84.3906 119.391 84.3906C119.927 84.3906 120.398 84.4922 120.805 84.6953C121.216 84.8984 121.562 85.1901 121.844 85.5703C122.125 85.9505 122.336 86.4036 122.477 86.9297C122.617 87.4557 122.688 88.0417 122.688 88.6875ZM120.617 88.8516V88.6875C120.617 88.3125 120.583 87.9661 120.516 87.6484C120.448 87.3255 120.344 87.0443 120.203 86.8047C120.062 86.5599 119.88 86.3698 119.656 86.2344C119.432 86.099 119.161 86.0312 118.844 86.0312C118.526 86.0312 118.253 86.0833 118.023 86.1875C117.794 86.2917 117.607 86.4401 117.461 86.6328C117.315 86.8255 117.201 87.0547 117.117 87.3203C117.039 87.5807 116.987 87.8698 116.961 88.1875V89.4844C117.008 89.8698 117.099 90.2161 117.234 90.5234C117.37 90.8307 117.568 91.0755 117.828 91.2578C118.094 91.4401 118.438 91.5312 118.859 91.5312C119.177 91.5312 119.448 91.4609 119.672 91.3203C119.896 91.1797 120.078 90.987 120.219 90.7422C120.359 90.4922 120.461 90.2057 120.523 89.8828C120.586 89.5599 120.617 89.2161 120.617 88.8516ZM129.227 90.9922V84.5469H131.305V93H129.352L129.227 90.9922ZM129.492 89.2422L130.133 89.2266C130.133 89.7943 130.07 90.3177 129.945 90.7969C129.82 91.276 129.625 91.6927 129.359 92.0469C129.099 92.3958 128.768 92.6693 128.367 92.8672C127.966 93.0599 127.492 93.1562 126.945 93.1562C126.529 93.1562 126.148 93.099 125.805 92.9844C125.461 92.8646 125.164 92.6797 124.914 92.4297C124.669 92.1745 124.479 91.849 124.344 91.4531C124.208 91.0521 124.141 90.5703 124.141 90.0078V84.5469H126.203V90.0234C126.203 90.3047 126.234 90.5391 126.297 90.7266C126.365 90.9141 126.456 91.0677 126.57 91.1875C126.69 91.3021 126.828 91.3854 126.984 91.4375C127.146 91.4844 127.318 91.5078 127.5 91.5078C128 91.5078 128.393 91.4089 128.68 91.2109C128.971 91.0078 129.18 90.737 129.305 90.3984C129.43 90.0547 129.492 89.6693 129.492 89.2422ZM137.133 84.5469V86.0312H132.289V84.5469H137.133ZM133.586 82.4688H135.656V90.5625C135.656 90.8125 135.69 91.0052 135.758 91.1406C135.826 91.276 135.927 91.3672 136.062 91.4141C136.198 91.4609 136.359 91.4844 136.547 91.4844C136.682 91.4844 136.807 91.4766 136.922 91.4609C137.036 91.4453 137.133 91.4297 137.211 91.4141L137.219 92.9609C137.047 93.0182 136.852 93.0651 136.633 93.1016C136.419 93.138 136.177 93.1562 135.906 93.1562C135.443 93.1562 135.036 93.0781 134.688 92.9219C134.339 92.7604 134.068 92.5026 133.875 92.1484C133.682 91.7891 133.586 91.3151 133.586 90.7266V82.4688Z" fill="black"/>
<g clip-path="url(#clip1_419_9481)">
<path d="M0 111.968C0 107.567 3.56745 104 7.96811 104H224.032C228.433 104 232 107.567 232 111.968V140.032C232 144.433 228.433 148 224.032 148H7.9681C3.56744 148 0 144.433 0 140.032V111.968Z" fill="white"/>
<circle cx="16" cy="126" r="4" fill="#21262E"/>
<circle cx="30" cy="126" r="4" fill="#21262E"/>
<circle cx="44" cy="126" r="4" fill="#21262E"/>
<circle cx="58" cy="126" r="4" fill="#21262E"/>
<circle cx="72" cy="126" r="4" fill="#21262E"/>
<circle cx="86" cy="126" r="4" fill="#21262E"/>
<circle cx="100" cy="126" r="4" fill="#21262E"/>
<circle cx="114" cy="126" r="4" fill="#21262E"/>
</g>
<path d="M7.96777 104.498H224.032C228.158 104.498 231.502 107.842 231.502 111.968V140.032C231.502 144.158 228.158 147.502 224.032 147.502H7.96777C3.84241 147.502 0.49823 144.158 0.498047 140.032V111.968C0.49823 107.842 3.84242 104.498 7.96777 104.498Z" stroke="#C2C7D3" stroke-width="0.996014"/>
<defs>
<clipPath id="clip0_419_9481">
<path d="M0 35.9681C0 31.5674 3.56745 28 7.96811 28H224.032C228.433 28 232 31.5674 232 35.9681V64.0319C232 68.4326 228.433 72 224.032 72H7.9681C3.56744 72 0 68.4326 0 64.0319V35.9681Z" fill="white"/>
</clipPath>
<clipPath id="clip1_419_9481">
<path d="M0 111.968C0 107.567 3.56745 104 7.96811 104H224.032C228.433 104 232 107.567 232 111.968V140.032C232 144.433 228.433 148 224.032 148H7.9681C3.56744 148 0 144.433 0 140.032V111.968Z" fill="white"/>
</clipPath>
</defs>
</svg>
