<svg width="567" height="359" viewBox="0 0 567 359" fill="none" xmlns="http://www.w3.org/2000/svg">
<g clip-path="url(#clip0_12035_50907)">
<path d="M347.232 200.167H220.331C216.869 200.167 214.063 197.361 214.062 193.9V-49.2321C214.063 -52.6938 216.869 -55.4996 220.331 -55.4996H347.232C350.694 -55.4994 353.5 -52.6936 353.5 -49.2321V193.899C353.5 197.36 350.694 200.167 347.232 200.167Z" fill="white"/>
<path d="M347.232 200.167H220.331C216.869 200.167 214.063 197.361 214.062 193.9V-49.2321C214.063 -52.6938 216.869 -55.4996 220.331 -55.4996H347.232C350.694 -55.4994 353.5 -52.6936 353.5 -49.2321V193.899C353.5 197.36 350.694 200.167 347.232 200.167Z" stroke="#DFE5E6"/>
<circle cx="283.781" cy="180.363" r="10.1521" transform="rotate(180 283.781 180.363)" fill="#D9D9D9"/>
<g clip-path="url(#clip1_12035_50907)">
<rect width="179.036" height="18.7188" transform="matrix(-1 0 0 -1 343.848 160.059)" fill="#F2F8FF"/>
<rect width="179.036" height="18.7188" transform="matrix(-1 0 0 -1 343.848 141.34)" fill="#D9E9FF"/>
<rect width="179.036" height="18.7188" transform="matrix(-1 0 0 -1 343.848 122.621)" fill="#B0D2FF"/>
<rect width="179.036" height="18.7188" transform="matrix(-1 0 0 -1 343.848 103.903)" fill="#7EB8FF"/>
<rect width="179.036" height="18.7188" transform="matrix(-1 0 0 -1 343.848 85.1838)" fill="#4A99FF"/>
<rect width="179.036" height="18.7188" transform="matrix(-1 0 0 -1 343.848 66.465)" fill="#0070F2"/>
<rect width="179.036" height="18.7188" transform="matrix(-1 0 0 -1 343.848 47.7462)" fill="#005ED6"/>
<rect width="179.036" height="18.7188" transform="matrix(-1 0 0 -1 343.848 29.0274)" fill="#0048B4"/>
<rect width="179.036" height="18.7188" transform="matrix(-1 0 0 -1 343.848 10.3086)" fill="#00348A"/>
</g>
<path d="M56.7676 158.064H183.669C187.131 158.064 189.937 160.87 189.938 164.332V407.464C189.937 410.925 187.131 413.731 183.669 413.731H56.7676C53.3061 413.731 50.5001 410.925 50.5 407.464V164.333C50.5 160.871 53.306 158.064 56.7676 158.064Z" fill="white"/>
<path d="M56.7676 158.064H183.669C187.131 158.064 189.937 160.87 189.938 164.332V407.464C189.937 410.925 187.131 413.731 183.669 413.731H56.7676C53.3061 413.731 50.5001 410.925 50.5 407.464V164.333C50.5 160.871 53.306 158.064 56.7676 158.064Z" stroke="#DFE5E6"/>
<circle cx="120.219" cy="177.868" r="10.1521" fill="#D9D9D9"/>
<g clip-path="url(#clip2_12035_50907)">
<rect width="179.036" height="18.7188" transform="translate(60.1521 198.172)" fill="#F5F3FF"/>
<rect width="179.036" height="18.7188" transform="translate(60.1521 216.891)" fill="#E6E1FF"/>
<rect width="179.036" height="18.7188" transform="translate(60.1521 235.61)" fill="#C9C0FF"/>
<rect width="179.036" height="18.7188" transform="translate(60.1521 254.329)" fill="#A998FF"/>
<rect width="179.036" height="18.7188" transform="translate(60.1521 273.048)" fill="#8A75FD"/>
<rect width="179.036" height="18.7188" transform="translate(60.1521 291.766)" fill="#715AFC"/>
<rect width="179.036" height="18.7188" transform="translate(60.1521 310.485)" fill="#5E47E6"/>
<rect width="179.036" height="18.7188" transform="translate(60.1521 329.204)" fill="#4A35C9"/>
<rect width="179.036" height="18.7188" transform="translate(60.1521 347.923)" fill="#3527A5"/>
</g>
<path d="M383.768 158.064H510.669C514.131 158.064 516.937 160.87 516.938 164.332V407.464C516.937 410.925 514.131 413.731 510.669 413.731H383.768C380.306 413.731 377.5 410.925 377.5 407.464V164.333C377.5 160.871 380.306 158.064 383.768 158.064Z" fill="white"/>
<path d="M383.768 158.064H510.669C514.131 158.064 516.937 160.87 516.938 164.332V407.464C516.937 410.925 514.131 413.731 510.669 413.731H383.768C380.306 413.731 377.5 410.925 377.5 407.464V164.333C377.5 160.871 380.306 158.064 383.768 158.064Z" stroke="#DFE5E6"/>
<circle cx="447.219" cy="177.868" r="10.1521" fill="#D9D9D9"/>
<g clip-path="url(#clip3_12035_50907)">
<rect width="179.036" height="18.7188" transform="translate(387.152 198.172)" fill="#F6FAF1"/>
<rect width="179.036" height="18.7188" transform="translate(387.152 216.891)" fill="#E0F1CE"/>
<rect width="179.036" height="18.7188" transform="translate(387.152 235.61)" fill="#BFE39E"/>
<rect width="179.036" height="18.7188" transform="translate(387.152 254.329)" fill="#97CF63"/>
<rect width="179.036" height="18.7188" transform="translate(387.152 273.048)" fill="#70B93A"/>
<rect width="179.036" height="18.7188" transform="translate(387.152 291.766)" fill="#4B841D"/>
<rect width="179.036" height="18.7188" transform="translate(387.152 310.485)" fill="#3C6917"/>
<rect width="179.036" height="18.7188" transform="translate(387.152 329.204)" fill="#2D4F11"/>
<rect width="179.036" height="18.7188" transform="translate(387.152 347.923)" fill="#1E340B"/>
</g>
</g>
<defs>
<clipPath id="clip0_12035_50907">
<rect width="567" height="359" rx="24" fill="white"/>
</clipPath>
<clipPath id="clip1_12035_50907">
<path d="M343.848 153.291C343.848 157.029 340.818 160.059 337.08 160.059H230.483C226.745 160.059 223.715 157.029 223.715 153.291V-39.0798C223.715 -42.8176 226.745 -45.8478 230.483 -45.8478H337.08C340.818 -45.8478 343.848 -42.8177 343.848 -39.0798V153.291Z" fill="white"/>
</clipPath>
<clipPath id="clip2_12035_50907">
<path d="M60.1521 204.94C60.1521 201.203 63.1823 198.172 66.9202 198.172H173.517C177.255 198.172 180.285 201.203 180.285 204.94V397.311C180.285 401.049 177.255 404.079 173.517 404.079H66.9202C63.1823 404.079 60.1521 401.049 60.1521 397.311V204.94Z" fill="white"/>
</clipPath>
<clipPath id="clip3_12035_50907">
<path d="M387.152 204.94C387.152 201.203 390.183 198.172 393.92 198.172H500.517C504.255 198.172 507.285 201.203 507.285 204.94V397.311C507.285 401.049 504.255 404.079 500.517 404.079H393.92C390.183 404.079 387.152 401.049 387.152 397.311V204.94Z" fill="white"/>
</clipPath>
</defs>
</svg>
