<svg width="355" height="191" viewBox="0 0 355 191" fill="none" xmlns="http://www.w3.org/2000/svg">
<g filter="url(#filter0_dd_1385_15131)">
<path d="M43.6797 15.9432C43.6797 8.46352 49.7432 2.40002 57.2229 2.40002H296.486C303.966 2.40002 310.029 8.46352 310.029 15.9432V61.0872C310.029 68.5669 303.966 74.6304 296.486 74.6304H57.2229C49.7432 74.6304 43.6797 68.5669 43.6797 61.0872V15.9432Z" fill="white"/>
<path d="M57.2227 3.2467H296.486C303.498 3.24684 309.182 8.93096 309.183 15.943V61.0875C309.182 68.0995 303.498 73.7837 296.486 73.7838H57.2227C50.2106 73.7837 44.5265 68.0995 44.5264 61.0875V15.943C44.5265 8.93096 50.2106 3.24683 57.2227 3.2467Z" stroke="#DEE2ED" stroke-width="1.6929"/>
<path d="M48.1943 15.9432C48.1943 10.9568 52.2367 6.91443 57.2231 6.91443H99.2231C104.21 6.91443 108.252 10.9568 108.252 15.9432V20.4576C108.252 25.4441 104.21 29.4864 99.2231 29.4864H57.2231C52.2367 29.4864 48.1943 25.4441 48.1943 20.4576V15.9432Z" fill="#D6E3F8"/>
<path d="M63.4718 20.2669C63.4718 20.0421 63.4366 19.8437 63.366 19.6717C63.2999 19.4954 63.1809 19.3367 63.0089 19.1956C62.8414 19.0545 62.6078 18.9201 62.308 18.7922C62.0126 18.6644 61.6379 18.5343 61.1838 18.4021C60.7076 18.261 60.2778 18.1045 59.8943 17.9325C59.5107 17.7562 59.1823 17.5556 58.9089 17.3308C58.6356 17.1059 58.4262 16.848 58.2807 16.5571C58.1352 16.2661 58.0625 15.9332 58.0625 15.5585C58.0625 15.1838 58.1396 14.8377 58.2939 14.5203C58.4482 14.2029 58.6687 13.9273 58.9552 13.6937C59.2462 13.4556 59.5923 13.2705 59.9935 13.1382C60.3946 13.0059 60.8421 12.9398 61.3359 12.9398C62.0589 12.9398 62.6717 13.0787 63.1743 13.3564C63.6812 13.6298 64.067 13.9891 64.3315 14.4343C64.596 14.8752 64.7283 15.3469 64.7283 15.8495H63.4586C63.4586 15.488 63.3815 15.1684 63.2272 14.8906C63.0729 14.6085 62.8392 14.388 62.5262 14.2293C62.2132 14.0662 61.8164 13.9846 61.3359 13.9846C60.8818 13.9846 60.5071 14.053 60.2117 14.1896C59.9163 14.3263 59.6959 14.5115 59.5504 14.7451C59.4093 14.9788 59.3388 15.2455 59.3388 15.5453C59.3388 15.7481 59.3807 15.9332 59.4644 16.1008C59.5526 16.2639 59.6871 16.416 59.8678 16.5571C60.053 16.6981 60.2866 16.8282 60.5688 16.9472C60.8553 17.0663 61.197 17.1809 61.5938 17.2911C62.1404 17.4454 62.6122 17.6173 63.0089 17.8069C63.4057 17.9965 63.7319 18.2103 63.9876 18.4484C64.2478 18.682 64.4395 18.9487 64.563 19.2485C64.6908 19.5439 64.7547 19.8789 64.7547 20.2537C64.7547 20.646 64.6754 21.0009 64.5167 21.3183C64.358 21.6358 64.1309 21.9069 63.8355 22.1317C63.5402 22.3566 63.1853 22.5307 62.7709 22.6541C62.3609 22.7732 61.9024 22.8327 61.3954 22.8327C60.9501 22.8327 60.5115 22.771 60.0794 22.6475C59.6518 22.5241 59.2616 22.3389 58.9089 22.0921C58.5607 21.8452 58.2807 21.541 58.0691 21.1795C57.8619 20.8136 57.7583 20.3903 57.7583 19.9098H59.028C59.028 20.2404 59.0919 20.5248 59.2197 20.7629C59.3476 20.9965 59.5217 21.1905 59.7422 21.3448C59.967 21.4991 60.2205 21.6137 60.5027 21.6887C60.7892 21.7592 61.0868 21.7945 61.3954 21.7945C61.8407 21.7945 62.2176 21.7328 62.5262 21.6093C62.8348 21.4859 63.0685 21.3095 63.2272 21.0803C63.3903 20.851 63.4718 20.5799 63.4718 20.2669ZM65.8723 19.2022V19.0501C65.8723 18.5343 65.9473 18.056 66.0972 17.6151C66.247 17.1699 66.4631 16.7841 66.7452 16.4579C67.0274 16.1272 67.369 15.8715 67.7702 15.6908C68.1714 15.5056 68.6211 15.413 69.1192 15.413C69.6218 15.413 70.0737 15.5056 70.4749 15.6908C70.8805 15.8715 71.2244 16.1272 71.5065 16.4579C71.7931 16.7841 72.0113 17.1699 72.1612 17.6151C72.3111 18.056 72.386 18.5343 72.386 19.0501V19.2022C72.386 19.718 72.3111 20.1964 72.1612 20.6372C72.0113 21.0781 71.7931 21.4638 71.5065 21.7945C71.2244 22.1207 70.8827 22.3764 70.4815 22.5616C70.0847 22.7423 69.6351 22.8327 69.1325 22.8327C68.6299 22.8327 68.178 22.7423 67.7768 22.5616C67.3756 22.3764 67.0318 22.1207 66.7452 21.7945C66.4631 21.4638 66.247 21.0781 66.0972 20.6372C65.9473 20.1964 65.8723 19.718 65.8723 19.2022ZM67.0957 19.0501V19.2022C67.0957 19.5593 67.1376 19.8966 67.2213 20.214C67.3051 20.527 67.4308 20.8047 67.5983 21.0472C67.7702 21.2897 67.984 21.4815 68.2397 21.6225C68.4954 21.7592 68.793 21.8275 69.1325 21.8275C69.4675 21.8275 69.7607 21.7592 70.012 21.6225C70.2677 21.4815 70.4793 21.2897 70.6468 21.0472C70.8144 20.8047 70.94 20.527 71.0238 20.214C71.1119 19.8966 71.156 19.5593 71.156 19.2022V19.0501C71.156 18.6974 71.1119 18.3646 71.0238 18.0516C70.94 17.7342 70.8121 17.4542 70.6402 17.2117C70.4727 16.9649 70.2611 16.7709 70.0054 16.6298C69.7541 16.4887 69.4587 16.4182 69.1192 16.4182C68.7842 16.4182 68.4888 16.4887 68.2331 16.6298C67.9818 16.7709 67.7702 16.9649 67.5983 17.2117C67.4308 17.4542 67.3051 17.7342 67.2213 18.0516C67.1376 18.3646 67.0957 18.6974 67.0957 19.0501ZM78.2979 21.0472V15.5453H79.5279V22.7004H78.3575L78.2979 21.0472ZM78.5294 19.5395L79.0386 19.5263C79.0386 20.0024 78.9879 20.4432 78.8865 20.8488C78.7895 21.25 78.6308 21.5983 78.4104 21.8937C78.1899 22.189 77.9012 22.4205 77.5441 22.588C77.187 22.7511 76.7527 22.8327 76.2413 22.8327C75.8931 22.8327 75.5734 22.782 75.2825 22.6806C74.9959 22.5792 74.749 22.4227 74.5418 22.2111C74.3346 21.9995 74.1737 21.7239 74.0591 21.3845C73.9489 21.045 73.8938 20.6372 73.8938 20.1611V15.5453H75.1171V20.1743C75.1171 20.4961 75.1524 20.7629 75.2229 20.9745C75.2979 21.1817 75.3971 21.347 75.5205 21.4704C75.6484 21.5895 75.7894 21.6732 75.9437 21.7217C76.1025 21.7702 76.2656 21.7945 76.4331 21.7945C76.9533 21.7945 77.3655 21.6953 77.6697 21.4969C77.9739 21.2941 78.1921 21.023 78.3244 20.6835C78.4611 20.3396 78.5294 19.9583 78.5294 19.5395ZM82.6162 16.6695V22.7004H81.3928V15.5453H82.5831L82.6162 16.6695ZM84.8513 15.5056L84.8447 16.643C84.7433 16.621 84.6463 16.6078 84.5537 16.6034C84.4656 16.5945 84.3642 16.5901 84.2495 16.5901C83.9674 16.5901 83.7183 16.6342 83.5023 16.7224C83.2863 16.8106 83.1033 16.934 82.9534 17.0927C82.8035 17.2514 82.6845 17.441 82.5963 17.6614C82.5126 17.8774 82.4574 18.1155 82.431 18.3756L82.0871 18.574C82.0871 18.142 82.129 17.7364 82.2128 17.3572C82.3009 16.9781 82.4354 16.643 82.6162 16.3521C82.7969 16.0567 83.0262 15.8274 83.3039 15.6643C83.586 15.4968 83.9211 15.413 84.3091 15.413C84.3972 15.413 84.4986 15.4241 84.6132 15.4461C84.7279 15.4637 84.8072 15.4836 84.8513 15.5056ZM88.7132 21.8275C89.0042 21.8275 89.2731 21.768 89.52 21.649C89.7669 21.53 89.9697 21.3668 90.1284 21.1596C90.2871 20.948 90.3775 20.7078 90.3995 20.4388H91.5634C91.5414 20.8621 91.3981 21.2566 91.1336 21.6225C90.8735 21.984 90.5318 22.2772 90.1086 22.5021C89.6853 22.7225 89.2202 22.8327 88.7132 22.8327C88.1754 22.8327 87.7059 22.7379 87.3047 22.5483C86.9079 22.3588 86.5773 22.0987 86.3128 21.768C86.0527 21.4374 85.8565 21.0582 85.7242 20.6306C85.5964 20.1986 85.5324 19.7423 85.5324 19.2617V18.984C85.5324 18.5035 85.5964 18.0494 85.7242 17.6217C85.8565 17.1897 86.0527 16.8084 86.3128 16.4777C86.5773 16.1471 86.9079 15.887 87.3047 15.6974C87.7059 15.5078 88.1754 15.413 88.7132 15.413C89.2731 15.413 89.7625 15.5277 90.1813 15.7569C90.6001 15.9817 90.9286 16.2903 91.1666 16.6827C91.4091 17.0707 91.5414 17.5115 91.5634 18.0053H90.3995C90.3775 17.7099 90.2937 17.4432 90.1482 17.2051C90.0072 16.9671 89.8132 16.7775 89.5663 16.6364C89.3238 16.4909 89.0395 16.4182 88.7132 16.4182C88.3385 16.4182 88.0233 16.4931 87.7676 16.643C87.5163 16.7885 87.3157 16.9869 87.1658 17.2382C87.0203 17.4851 86.9145 17.7606 86.8484 18.0648C86.7867 18.3646 86.7558 18.671 86.7558 18.984V19.2617C86.7558 19.5747 86.7867 19.8833 86.8484 20.1875C86.9101 20.4917 87.0137 20.7673 87.1592 21.0142C87.3091 21.261 87.5097 21.4594 87.761 21.6093C88.0167 21.7548 88.3341 21.8275 88.7132 21.8275ZM95.9081 22.8327C95.4099 22.8327 94.958 22.7489 94.5524 22.5814C94.1512 22.4095 93.8052 22.1692 93.5142 21.8606C93.2276 21.552 93.0072 21.1861 92.8529 20.7629C92.6986 20.3396 92.6215 19.8767 92.6215 19.3742V19.0964C92.6215 18.5145 92.7074 17.9965 92.8794 17.5424C93.0513 17.0839 93.285 16.6959 93.5803 16.3785C93.8757 16.0611 94.2108 15.8208 94.5855 15.6577C94.9602 15.4946 95.3482 15.413 95.7494 15.413C96.2608 15.413 96.7016 15.5012 97.0719 15.6775C97.4467 15.8539 97.7531 16.1008 97.9911 16.4182C98.2292 16.7312 98.4055 17.1015 98.5202 17.5292C98.6348 17.9524 98.6921 18.4153 98.6921 18.9179V19.4667H93.3489V18.4682H97.4687V18.3756C97.4511 18.0582 97.3849 17.7496 97.2703 17.4498C97.1601 17.15 96.9838 16.9031 96.7413 16.7092C96.4988 16.5152 96.1682 16.4182 95.7494 16.4182C95.4716 16.4182 95.2159 16.4777 94.9823 16.5967C94.7486 16.7114 94.548 16.8833 94.3805 17.1125C94.213 17.3418 94.0829 17.6217 93.9903 17.9524C93.8977 18.283 93.8515 18.6644 93.8515 19.0964V19.3742C93.8515 19.7136 93.8977 20.0332 93.9903 20.333C94.0873 20.6284 94.2262 20.8885 94.4069 21.1133C94.5921 21.3382 94.8147 21.5145 95.0748 21.6424C95.3394 21.7702 95.6391 21.8342 95.9742 21.8342C96.4062 21.8342 96.7722 21.746 97.0719 21.5696C97.3717 21.3933 97.634 21.1574 97.8589 20.8621L98.5995 21.4506C98.4452 21.6843 98.249 21.9069 98.011 22.1185C97.7729 22.3301 97.4797 22.5021 97.1315 22.6343C96.7876 22.7666 96.3798 22.8327 95.9081 22.8327Z" fill="#005592"/>
<path d="M70.4501 49.6727H64.5481V48.5H70.4501V49.6727ZM79.9396 49.6727H74.0376V48.5H79.9396V49.6727ZM86.7443 52.9979C87.0014 52.9979 87.2509 52.9568 87.4926 52.8745C87.7395 52.7922 87.9581 52.6764 88.1484 52.5273C88.3387 52.3833 88.4904 52.2135 88.6036 52.0181C88.7219 51.8175 88.7836 51.6015 88.7887 51.37H90.1389C90.1337 51.7403 90.036 52.0952 89.8457 52.4347C89.6605 52.769 89.4111 53.0622 89.0973 53.3142C88.7836 53.5714 88.4236 53.7771 88.0172 53.9314C87.6109 54.0806 87.1866 54.1552 86.7443 54.1552C86.1116 54.1552 85.5587 54.042 85.0855 53.8157C84.6123 53.5894 84.2189 53.2834 83.9051 52.8976C83.5862 52.517 83.3471 52.0772 83.1876 51.5783C83.0282 51.0743 82.9485 50.5445 82.9485 49.989V49.665C82.9485 49.1147 83.0282 48.5875 83.1876 48.0834C83.3471 47.5794 83.5862 47.1345 83.9051 46.7487C84.2189 46.3681 84.6123 46.0647 85.0855 45.8383C85.5587 45.612 86.1116 45.4989 86.7443 45.4989C87.238 45.4989 87.6906 45.5786 88.1021 45.738C88.5187 45.8923 88.8788 46.1032 89.1822 46.3707C89.4805 46.6433 89.7145 46.9647 89.8843 47.3351C90.054 47.7054 90.1389 48.1014 90.1389 48.5232H88.7887C88.7836 48.2712 88.727 48.0346 88.619 47.8134C88.5161 47.5871 88.3747 47.3891 88.1947 47.2193C88.0147 47.0496 87.7986 46.9159 87.5466 46.8182C87.2997 46.7204 87.0323 46.6716 86.7443 46.6716C86.3019 46.6716 85.929 46.7616 85.6256 46.9416C85.3273 47.1165 85.0855 47.3453 84.9004 47.6282C84.7152 47.9163 84.5815 48.2377 84.4992 48.5926C84.422 48.9475 84.3835 49.305 84.3835 49.665V49.989C84.3835 50.3542 84.422 50.7168 84.4992 51.0769C84.5815 51.4317 84.7152 51.7506 84.9004 52.0335C85.0804 52.3215 85.3195 52.5556 85.6179 52.7356C85.9213 52.9105 86.2968 52.9979 86.7443 52.9979ZM92.2759 49.7499C92.2759 49.1481 92.3634 48.59 92.5383 48.0757C92.7131 47.5562 92.9652 47.1062 93.2943 46.7256C93.6184 46.345 94.0144 46.0466 94.4824 45.8306C94.9505 45.6095 95.4777 45.4989 96.064 45.4989C96.6555 45.4989 97.1853 45.6095 97.6533 45.8306C98.1265 46.0466 98.5277 46.345 98.8569 46.7256C99.1809 47.1062 99.4304 47.5562 99.6052 48.0757C99.7801 48.59 99.8675 49.1481 99.8675 49.7499V49.9196C99.8675 50.5214 99.7801 51.0794 99.6052 51.5938C99.4304 52.1081 99.1809 52.5556 98.8569 52.9362C98.5277 53.3168 98.1291 53.6151 97.661 53.8311C97.193 54.0471 96.6658 54.1552 96.0795 54.1552C95.488 54.1552 94.9556 54.0471 94.4824 53.8311C94.0144 53.6151 93.6184 53.3168 93.2943 52.9362C92.9652 52.5556 92.7131 52.1081 92.5383 51.5938C92.3634 51.0794 92.2759 50.5214 92.2759 49.9196V49.7499ZM93.7032 49.9196C93.7032 50.3311 93.7521 50.7245 93.8498 51.1C93.9475 51.4703 94.0967 51.7969 94.2973 52.0798C94.4927 52.3627 94.7396 52.5864 95.0379 52.751C95.3362 52.9156 95.6834 52.9979 96.0795 52.9979C96.4704 52.9979 96.8124 52.9156 97.1056 52.751C97.4039 52.5864 97.6533 52.3627 97.8539 52.0798C98.0494 51.7969 98.196 51.4703 98.2937 51.1C98.3914 50.7245 98.4403 50.3311 98.4403 49.9196V49.7499C98.4403 49.3435 98.3888 48.9552 98.286 48.5849C98.1882 48.2094 98.0417 47.8803 97.8462 47.5974C97.6456 47.3145 97.3962 47.0908 97.0978 46.9262C96.8047 46.7564 96.4601 46.6716 96.064 46.6716C95.668 46.6716 95.3234 46.7564 95.0302 46.9262C94.737 47.0908 94.4927 47.3145 94.2973 47.5974C94.0967 47.8803 93.9475 48.2094 93.8498 48.5849C93.7521 48.9552 93.7032 49.3435 93.7032 49.7499V49.9196ZM102.39 42.1506H106.657V52.7664H109.38V54.0009H102.39V52.7664H105.229V43.3927H102.39V42.1506ZM111.255 49.7499C111.255 49.1481 111.342 48.59 111.517 48.0757C111.692 47.5562 111.944 47.1062 112.273 46.7256C112.597 46.345 112.993 46.0466 113.461 45.8306C113.929 45.6095 114.457 45.4989 115.043 45.4989C115.635 45.4989 116.164 45.6095 116.632 45.8306C117.106 46.0466 117.507 46.345 117.836 46.7256C118.16 47.1062 118.409 47.5562 118.584 48.0757C118.759 48.59 118.847 49.1481 118.847 49.7499V49.9196C118.847 50.5214 118.759 51.0794 118.584 51.5938C118.409 52.1081 118.16 52.5556 117.836 52.9362C117.507 53.3168 117.108 53.6151 116.64 53.8311C116.172 54.0471 115.645 54.1552 115.058 54.1552C114.467 54.1552 113.935 54.0471 113.461 53.8311C112.993 53.6151 112.597 53.3168 112.273 52.9362C111.944 52.5556 111.692 52.1081 111.517 51.5938C111.342 51.0794 111.255 50.5214 111.255 49.9196V49.7499ZM112.682 49.9196C112.682 50.3311 112.731 50.7245 112.829 51.1C112.927 51.4703 113.076 51.7969 113.276 52.0798C113.472 52.3627 113.719 52.5864 114.017 52.751C114.315 52.9156 114.662 52.9979 115.058 52.9979C115.449 52.9979 115.791 52.9156 116.085 52.751C116.383 52.5864 116.632 52.3627 116.833 52.0798C117.028 51.7969 117.175 51.4703 117.273 51.1C117.37 50.7245 117.419 50.3311 117.419 49.9196V49.7499C117.419 49.3435 117.368 48.9552 117.265 48.5849C117.167 48.2094 117.021 47.8803 116.825 47.5974C116.625 47.3145 116.375 47.0908 116.077 46.9262C115.784 46.7564 115.439 46.6716 115.043 46.6716C114.647 46.6716 114.302 46.7564 114.009 46.9262C113.716 47.0908 113.472 47.3145 113.276 47.5974C113.076 47.8803 112.927 48.2094 112.829 48.5849C112.731 48.9552 112.682 49.3435 112.682 49.7499V49.9196ZM126.616 45.4989C126.878 45.4989 127.15 45.5169 127.433 45.5529C127.721 45.5889 127.937 45.6378 128.081 45.6995L127.889 47.0959C127.611 47.0342 127.346 46.9905 127.094 46.9647C126.847 46.9339 126.587 46.9184 126.315 46.9184C125.965 46.9184 125.649 46.9622 125.366 47.0496C125.083 47.1319 124.836 47.2553 124.625 47.4199C124.435 47.5639 124.268 47.7414 124.124 47.9523C123.985 48.158 123.869 48.3894 123.776 48.6466V54.0009H122.341V45.6532H123.699L123.761 46.7719L123.769 46.9802C124.108 46.5224 124.515 46.1624 124.988 45.9001C125.466 45.6326 126.009 45.4989 126.616 45.4989ZM136.877 49.6727H130.975V48.5H136.877V49.6727ZM140.117 57.2103V45.6532H141.421L141.49 46.5636C141.603 46.4195 141.727 46.291 141.861 46.1778C141.994 46.0595 142.138 45.9592 142.293 45.8769C142.509 45.7535 142.748 45.6609 143.01 45.5992C143.278 45.5323 143.563 45.4989 143.866 45.4989C144.401 45.4989 144.875 45.6043 145.286 45.8152C145.697 46.0261 146.042 46.3192 146.32 46.6947C146.598 47.0702 146.808 47.5202 146.952 48.0448C147.096 48.5643 147.168 49.1352 147.168 49.7576V49.9196C147.168 50.5162 147.096 51.0743 146.952 51.5938C146.808 52.1081 146.598 52.5556 146.32 52.9362C146.042 53.3168 145.697 53.6151 145.286 53.8311C144.88 54.0471 144.414 54.1552 143.89 54.1552C143.571 54.1552 143.272 54.1217 142.995 54.0549C142.722 53.988 142.475 53.8928 142.254 53.7694C142.12 53.6923 141.994 53.6074 141.876 53.5148C141.758 53.4171 141.647 53.3116 141.544 53.1985V57.2103H140.117ZM145.741 49.7576C145.741 49.3513 145.695 48.9655 145.602 48.6003C145.515 48.23 145.379 47.9034 145.193 47.6205C145.003 47.3428 144.764 47.1216 144.476 46.957C144.188 46.7924 143.843 46.7101 143.442 46.7101C143.221 46.7101 143.015 46.7359 142.825 46.7873C142.64 46.8387 142.473 46.9133 142.323 47.011C142.159 47.1088 142.012 47.2296 141.884 47.3736C141.755 47.5176 141.642 47.6771 141.544 47.852V51.8715C141.632 52.0258 141.732 52.1698 141.845 52.3035C141.958 52.4373 142.087 52.5504 142.231 52.643C142.395 52.751 142.578 52.8359 142.779 52.8976C142.984 52.9593 143.211 52.9902 143.458 52.9902C143.854 52.9902 144.196 52.9079 144.484 52.7433C144.772 52.5736 145.008 52.3473 145.193 52.0644C145.379 51.7815 145.515 51.4549 145.602 51.0846C145.695 50.7142 145.741 50.3259 145.741 49.9196V49.7576ZM155.084 45.4989C155.346 45.4989 155.619 45.5169 155.902 45.5529C156.19 45.5889 156.406 45.6378 156.55 45.6995L156.357 47.0959C156.079 47.0342 155.814 46.9905 155.562 46.9647C155.316 46.9339 155.056 46.9184 154.783 46.9184C154.433 46.9184 154.117 46.9622 153.834 47.0496C153.551 47.1319 153.304 47.2553 153.094 47.4199C152.903 47.5639 152.736 47.7414 152.592 47.9523C152.453 48.158 152.338 48.3894 152.245 48.6466V54.0009H150.81V45.6532H152.168L152.23 46.7719L152.237 46.9802C152.577 46.5224 152.983 46.1624 153.456 45.9001C153.935 45.6326 154.477 45.4989 155.084 45.4989ZM159.327 45.6532H163.594V52.7664H166.317V54.0009H159.327V52.7664H162.166V46.8953H159.327V45.6532ZM161.981 43.4621C161.981 43.3387 161.999 43.2229 162.035 43.1149C162.076 43.0069 162.138 42.9143 162.22 42.8372C162.287 42.7703 162.372 42.7189 162.475 42.6829C162.583 42.6417 162.704 42.6212 162.838 42.6212C162.971 42.6212 163.09 42.6417 163.193 42.6829C163.295 42.7189 163.38 42.7703 163.447 42.8372C163.529 42.9092 163.591 42.9992 163.632 43.1072C163.673 43.2152 163.694 43.3335 163.694 43.4621C163.694 43.6936 163.622 43.8864 163.478 44.0407C163.334 44.195 163.121 44.2722 162.838 44.2722C162.55 44.2722 162.334 44.195 162.19 44.0407C162.051 43.8864 161.981 43.6936 161.981 43.4621ZM169.249 45.6532L169.287 46.4401C169.457 46.1469 169.678 45.9181 169.951 45.7535C170.229 45.5889 170.563 45.504 170.954 45.4989C171.175 45.4989 171.373 45.5246 171.548 45.576C171.728 45.6223 171.885 45.6918 172.019 45.7843C172.116 45.8563 172.204 45.9438 172.281 46.0466C172.363 46.1495 172.433 46.2652 172.489 46.3938C172.561 46.2755 172.646 46.1649 172.744 46.0621C172.842 45.9592 172.947 45.8692 173.06 45.7921C173.204 45.7046 173.364 45.6352 173.538 45.5837C173.718 45.5323 173.914 45.504 174.125 45.4989C174.413 45.4989 174.673 45.5426 174.904 45.63C175.135 45.7123 175.331 45.8358 175.49 46.0004C175.665 46.1855 175.799 46.4273 175.892 46.7256C175.984 47.0187 176.03 47.3659 176.03 47.7671V54.0009H174.673V47.7517C174.673 47.5768 174.652 47.4225 174.611 47.2888C174.57 47.155 174.511 47.0445 174.433 46.957C174.351 46.8747 174.248 46.813 174.125 46.7719C174.007 46.7307 173.868 46.7101 173.708 46.7101C173.538 46.7101 173.392 46.7333 173.268 46.7796C173.145 46.8259 173.042 46.8876 172.96 46.9647C172.878 47.047 172.813 47.1422 172.767 47.2502C172.721 47.3531 172.69 47.4688 172.674 47.5974C172.674 47.6231 172.674 47.6488 172.674 47.6745C172.674 47.6951 172.674 47.7208 172.674 47.7517V54.0009H171.317V47.744C171.317 47.5691 171.296 47.4148 171.255 47.2811C171.219 47.1473 171.16 47.0367 171.077 46.9493C171 46.867 170.902 46.8079 170.784 46.7719C170.671 46.7307 170.537 46.7101 170.383 46.7101C170.213 46.7101 170.064 46.7307 169.936 46.7719C169.812 46.8079 169.707 46.8619 169.619 46.9339C169.552 46.9905 169.493 47.0547 169.442 47.1268C169.395 47.1988 169.357 47.2759 169.326 47.3582V54.0009H167.968V45.6532H169.249ZM183.568 54.0009C183.511 53.8928 183.465 53.7591 183.429 53.5997C183.398 53.4351 183.375 53.2654 183.36 53.0905C183.216 53.2345 183.054 53.3708 182.874 53.4994C182.699 53.628 182.506 53.7411 182.295 53.8388C182.079 53.9366 181.85 54.0137 181.608 54.0703C181.367 54.1269 181.109 54.1552 180.837 54.1552C180.395 54.1552 179.993 54.0909 179.633 53.9623C179.278 53.8337 178.978 53.6588 178.731 53.4377C178.479 53.2216 178.283 52.9645 178.144 52.6662C178.011 52.3627 177.944 52.0361 177.944 51.6863C177.944 51.2286 178.034 50.8274 178.214 50.4828C178.399 50.1382 178.659 49.8502 178.993 49.6187C179.327 49.3924 179.728 49.2227 180.197 49.1095C180.67 48.9964 181.197 48.9398 181.778 48.9398H183.337V48.284C183.337 48.032 183.29 47.8057 183.198 47.6051C183.105 47.4045 182.974 47.2322 182.804 47.0882C182.634 46.9493 182.426 46.8413 182.179 46.7641C181.938 46.687 181.665 46.6484 181.362 46.6484C181.079 46.6484 180.824 46.6844 180.598 46.7564C180.377 46.8284 180.189 46.9236 180.035 47.0419C179.88 47.1602 179.759 47.3016 179.672 47.4662C179.59 47.6257 179.548 47.7928 179.548 47.9677H178.113C178.119 47.6642 178.196 47.3659 178.345 47.0727C178.499 46.7796 178.72 46.5147 179.008 46.2781C179.291 46.0466 179.636 45.8589 180.042 45.7149C180.454 45.5709 180.919 45.4989 181.439 45.4989C181.912 45.4989 182.352 45.558 182.758 45.6763C183.164 45.7895 183.517 45.9618 183.815 46.1932C184.108 46.4298 184.34 46.723 184.509 47.0727C184.679 47.4225 184.764 47.8314 184.764 48.2994V52.1801C184.764 52.4578 184.79 52.7536 184.841 53.0673C184.892 53.3759 184.964 53.646 185.057 53.8774V54.0009H183.568ZM181.045 52.913C181.323 52.913 181.583 52.877 181.824 52.805C182.066 52.733 182.287 52.6379 182.488 52.5196C182.683 52.4013 182.853 52.2675 182.997 52.1184C183.141 51.9641 183.254 51.8046 183.337 51.6401V49.9505H182.01C181.516 49.9505 181.084 49.9942 180.713 50.0816C180.348 50.1639 180.058 50.2925 179.842 50.4674C179.687 50.5908 179.569 50.7374 179.487 50.9071C179.41 51.0769 179.371 51.2697 179.371 51.4858C179.371 51.6915 179.404 51.8818 179.471 52.0567C179.543 52.2315 179.649 52.3807 179.788 52.5041C179.927 52.6327 180.101 52.733 180.312 52.805C180.523 52.877 180.767 52.913 181.045 52.913ZM193.042 45.4989C193.304 45.4989 193.577 45.5169 193.86 45.5529C194.148 45.5889 194.364 45.6378 194.508 45.6995L194.315 47.0959C194.037 47.0342 193.772 46.9905 193.52 46.9647C193.274 46.9339 193.014 46.9184 192.741 46.9184C192.391 46.9184 192.075 46.9622 191.792 47.0496C191.509 47.1319 191.262 47.2553 191.052 47.4199C190.861 47.5639 190.694 47.7414 190.55 47.9523C190.411 48.158 190.296 48.3894 190.203 48.6466V54.0009H188.768V45.6532H190.126L190.188 46.7719L190.195 46.9802C190.535 46.5224 190.941 46.1624 191.414 45.9001C191.893 45.6326 192.435 45.4989 193.042 45.4989ZM197.733 57.3723C197.599 57.3723 197.442 57.3569 197.262 57.326C197.082 57.2952 196.946 57.2695 196.853 57.2489L197.085 56.0839C197.213 56.0942 197.339 56.1019 197.463 56.1071C197.591 56.1173 197.692 56.1225 197.764 56.1225C197.959 56.1225 198.137 56.0685 198.296 55.9605C198.461 55.8525 198.607 55.7239 198.736 55.5747C198.859 55.4256 198.965 55.2713 199.052 55.1118C199.145 54.9524 199.217 54.8212 199.268 54.7184L199.839 53.6074L196.244 45.6532H197.841L200.132 51.0383L200.503 52.0489L200.896 51.0691L203.048 45.6532H204.645L200.41 55.2893C200.312 55.5053 200.186 55.7342 200.032 55.9759C199.883 56.2176 199.7 56.4414 199.484 56.6471C199.268 56.8528 199.016 57.0252 198.728 57.164C198.44 57.3029 198.108 57.3723 197.733 57.3723ZM209.421 53.075C209.421 52.7716 209.514 52.5119 209.699 52.2958C209.884 52.0798 210.164 51.9718 210.54 51.9718C210.91 51.9718 211.19 52.0798 211.381 52.2958C211.576 52.5067 211.674 52.7664 211.674 53.075C211.674 53.3785 211.576 53.6331 211.381 53.8388C211.185 54.0446 210.905 54.1474 210.54 54.1474C210.169 54.1474 209.889 54.0446 209.699 53.8388C209.514 53.628 209.421 53.3734 209.421 53.075ZM209.421 46.3167C209.421 46.0132 209.514 45.7535 209.699 45.5375C209.884 45.3214 210.164 45.2134 210.54 45.2134C210.91 45.2134 211.19 45.3214 211.381 45.5375C211.576 45.7483 211.674 46.0081 211.674 46.3167C211.674 46.6201 211.576 46.8747 211.381 47.0805C211.185 47.2862 210.905 47.3891 210.54 47.3891C210.169 47.3891 209.889 47.2862 209.699 47.0805C209.514 46.8696 209.421 46.615 209.421 46.3167ZM229.642 50.8377H227.605L226.988 54.0009H225.885L226.502 50.8377H224.658V49.7807H226.703L227.235 47.0496H225.245V45.9772H227.443L228.076 42.7678H229.179L228.547 45.9772H230.583L231.216 42.7678H232.319L231.687 45.9772H233.268V47.0496H231.478L230.946 49.7807H232.69V50.8377H230.745L230.128 54.0009H229.025L229.642 50.8377ZM227.806 49.7807H229.843L230.375 47.0496H228.338L227.806 49.7807ZM235.529 48.3689L236.092 42.7678H241.855V44.1565H237.296L236.979 47.1499C237.2 47.0213 237.465 46.9082 237.774 46.8104C238.082 46.7127 238.44 46.6639 238.846 46.6639C239.366 46.6639 239.831 46.7539 240.243 46.9339C240.654 47.1139 241.004 47.3659 241.292 47.69C241.58 48.0191 241.801 48.4152 241.955 48.8781C242.11 49.341 242.187 49.8553 242.187 50.4211C242.187 50.956 242.115 51.4523 241.971 51.9101C241.827 52.3678 241.611 52.7613 241.323 53.0905C241.03 53.4248 240.662 53.6871 240.22 53.8774C239.777 54.0626 239.258 54.1552 238.661 54.1552C238.203 54.1552 237.771 54.0909 237.365 53.9623C236.959 53.8337 236.599 53.6408 236.285 53.3837C235.966 53.1265 235.704 52.8025 235.498 52.4116C235.297 52.0207 235.171 51.5655 235.12 51.046H236.478C236.565 51.6838 236.799 52.1672 237.18 52.4964C237.566 52.8256 238.059 52.9902 238.661 52.9902C239.001 52.9902 239.301 52.931 239.564 52.8127C239.826 52.6893 240.047 52.5144 240.227 52.2881C240.402 52.067 240.533 51.7995 240.621 51.4858C240.713 51.172 240.76 50.8223 240.76 50.4365C240.76 50.0868 240.708 49.7602 240.605 49.4567C240.508 49.1532 240.364 48.8884 240.173 48.662C239.983 48.4409 239.749 48.266 239.471 48.1374C239.193 48.0088 238.875 47.9445 238.515 47.9445C238.278 47.9445 238.072 47.9625 237.897 47.9986C237.728 48.0294 237.573 48.0757 237.434 48.1374C237.296 48.1991 237.164 48.2737 237.041 48.3612C236.923 48.4486 236.799 48.5489 236.671 48.662L235.529 48.3689ZM246.176 47.6977H247.194C247.554 47.6977 247.87 47.6488 248.143 47.5511C248.421 47.4534 248.655 47.3196 248.845 47.1499C249.03 46.9802 249.172 46.777 249.269 46.5404C249.367 46.3038 249.416 46.0441 249.416 45.7612C249.416 45.4269 249.372 45.1363 249.285 44.8894C249.197 44.6374 249.069 44.4291 248.899 44.2645C248.734 44.105 248.529 43.9867 248.282 43.9096C248.04 43.8273 247.762 43.7861 247.449 43.7861C247.145 43.7861 246.867 43.8324 246.615 43.925C246.368 44.0124 246.158 44.141 245.983 44.3108C245.803 44.4805 245.664 44.6837 245.566 44.9203C245.468 45.1568 245.419 45.4217 245.419 45.7149H243.984C243.984 45.288 244.067 44.8868 244.231 44.5114C244.401 44.1307 244.638 43.799 244.941 43.5161C245.245 43.2384 245.607 43.0198 246.029 42.8603C246.456 42.6957 246.929 42.6135 247.449 42.6135C247.953 42.6135 248.413 42.6829 248.83 42.8218C249.246 42.9555 249.604 43.1561 249.902 43.4235C250.2 43.691 250.432 44.0227 250.596 44.4188C250.761 44.8148 250.843 45.2726 250.843 45.7921C250.843 46.0081 250.81 46.2318 250.743 46.4633C250.676 46.6947 250.573 46.9184 250.434 47.1345C250.295 47.3556 250.115 47.5639 249.894 47.7594C249.678 47.9497 249.418 48.1091 249.115 48.2377C249.48 48.356 249.784 48.5103 250.025 48.7006C250.272 48.8909 250.47 49.1044 250.619 49.341C250.763 49.5776 250.864 49.827 250.92 50.0893C250.982 50.3516 251.013 50.6114 251.013 50.8685C251.013 51.3932 250.923 51.8586 250.743 52.265C250.563 52.6713 250.313 53.0133 249.994 53.2911C249.676 53.574 249.298 53.79 248.86 53.9391C248.428 54.0831 247.96 54.1552 247.456 54.1552C246.962 54.1552 246.497 54.0857 246.06 53.9468C245.628 53.808 245.252 53.6048 244.933 53.3374C244.615 53.0699 244.36 52.7433 244.17 52.3576C243.984 51.9718 243.892 51.532 243.892 51.0383H245.319C245.319 51.3315 245.368 51.5989 245.466 51.8406C245.569 52.0824 245.713 52.2881 245.898 52.4578C246.083 52.6276 246.307 52.7587 246.569 52.8513C246.836 52.9439 247.132 52.9902 247.456 52.9902C247.78 52.9902 248.073 52.949 248.336 52.8667C248.598 52.7793 248.822 52.6482 249.007 52.4733C249.192 52.2984 249.334 52.0824 249.431 51.8252C249.534 51.5629 249.586 51.2543 249.586 50.8994C249.586 50.5497 249.526 50.2488 249.408 49.9967C249.295 49.7396 249.136 49.5261 248.93 49.3564C248.719 49.1867 248.464 49.0607 248.166 48.9784C247.873 48.8961 247.549 48.8549 247.194 48.8549H246.176V47.6977ZM259.785 50.2282H261.351V51.3932H259.785V54.0009H258.358V51.3932H253.235V50.5522L258.265 42.7678H259.785V50.2282ZM254.816 50.2282H258.358V44.6657L258.126 45.0977L254.816 50.2282ZM268.85 51.0923H265.101L264.198 54.0009H262.771L266.397 42.7678H267.593L271.157 54.0009H269.737L268.85 51.0923ZM265.486 49.8502H268.472L266.991 44.9743L265.486 49.8502ZM272.962 54.0009V42.7678H276.303C276.766 42.7729 277.218 42.8346 277.661 42.9529C278.103 43.0661 278.496 43.2435 278.841 43.4853C279.186 43.727 279.461 44.0356 279.667 44.4111C279.872 44.7865 279.973 45.2366 279.967 45.7612C279.962 46.0544 279.913 46.3218 279.821 46.5636C279.733 46.8053 279.613 47.0213 279.458 47.2116C279.299 47.4071 279.121 47.5717 278.926 47.7054C278.736 47.8391 278.504 47.9651 278.232 48.0834V48.1066C278.514 48.1734 278.787 48.2943 279.049 48.4692C279.312 48.644 279.528 48.8369 279.697 49.0478C279.877 49.2793 280.016 49.539 280.114 49.827C280.217 50.115 280.268 50.4262 280.268 50.7605C280.273 51.2852 280.173 51.7481 279.967 52.1492C279.762 52.5504 279.487 52.8847 279.142 53.1522C278.797 53.4248 278.399 53.6331 277.946 53.7771C277.499 53.9211 277.036 53.9957 276.557 54.0009H272.962ZM274.397 48.7469V52.7896H276.596C276.894 52.7844 277.177 52.7356 277.445 52.643C277.712 52.5453 277.949 52.4116 278.154 52.2418C278.36 52.0721 278.522 51.8638 278.64 51.6169C278.764 51.37 278.826 51.0897 278.826 50.776C278.831 50.4571 278.777 50.1742 278.664 49.9273C278.556 49.6804 278.404 49.4696 278.208 49.2947C278.013 49.1249 277.784 48.9938 277.522 48.9012C277.259 48.8086 276.977 48.7572 276.673 48.7469H274.397ZM274.397 47.5588H276.388C276.655 47.5537 276.917 47.5125 277.175 47.4354C277.432 47.3531 277.661 47.2348 277.861 47.0805C278.062 46.9313 278.224 46.7461 278.347 46.525C278.471 46.3038 278.532 46.0466 278.532 45.7535C278.532 45.4397 278.471 45.1723 278.347 44.9511C278.229 44.7299 278.07 44.5474 277.869 44.4033C277.663 44.2645 277.427 44.1616 277.159 44.0947C276.897 44.0279 276.627 43.9919 276.349 43.9867H274.397V47.5588ZM289.58 43.5701L284.928 54.0009H283.431L288.068 44.0176H281.989V42.7678H289.58V43.5701Z" fill="#005592"/>
</g>
<g filter="url(#filter1_dd_1385_15131)">
<path d="M30.3633 49.928C30.3633 41.7003 37.0331 35.0305 45.2608 35.0305H308.45C316.678 35.0305 323.348 41.7003 323.348 49.928V99.5864C323.348 107.814 316.678 114.484 308.45 114.484H45.2608C37.0331 114.484 30.3633 107.814 30.3633 99.5864V49.928Z" fill="white"/>
<path d="M45.2607 35.9611H308.45C316.164 35.9611 322.417 42.2145 322.417 49.9279V99.5861C322.417 107.3 316.164 113.553 308.45 113.553H45.2607C37.5473 113.553 31.2939 107.3 31.2939 99.5861V49.9279C31.294 42.2145 37.5474 35.9612 45.2607 35.9611Z" stroke="#DEE2ED" stroke-width="1.86219"/>
<path d="M35.3281 49.9279C35.3281 44.4428 39.7747 39.9963 45.2598 39.9963H123.26C128.745 39.9963 133.191 44.4428 133.191 49.928V54.8938C133.191 60.3789 128.745 64.8255 123.26 64.8255H45.2598C39.7747 64.8255 35.3281 60.3789 35.3281 54.8938V49.9279Z" fill="#D6E3F8"/>
<path d="M52.8831 54.0429H54.2797C54.207 54.7122 54.0155 55.3111 53.7051 55.8397C53.3947 56.3683 52.9558 56.7877 52.3885 57.0981C51.8211 57.4036 51.1131 57.5564 50.2644 57.5564C49.6437 57.5564 49.0787 57.44 48.5695 57.2072C48.0652 56.9744 47.6311 56.6447 47.2674 56.2179C46.9037 55.7863 46.6225 55.2699 46.4236 54.6685C46.2297 54.0623 46.1327 53.3883 46.1327 52.6463V51.5915C46.1327 50.8496 46.2297 50.1779 46.4236 49.5766C46.6225 48.9704 46.9062 48.4515 47.2747 48.0199C47.6481 47.5883 48.0967 47.2561 48.6204 47.0234C49.1442 46.7906 49.7334 46.6742 50.3881 46.6742C51.1882 46.6742 51.8647 46.8245 52.4176 47.1252C52.9704 47.4259 53.3996 47.8429 53.7051 48.3764C54.0155 48.9049 54.207 49.5184 54.2797 50.2167H52.8831C52.8152 49.7221 52.6891 49.2978 52.5048 48.9437C52.3206 48.5849 52.0587 48.3085 51.7192 48.1145C51.3798 47.9205 50.9361 47.8235 50.3881 47.8235C49.9177 47.8235 49.503 47.9132 49.1442 48.0927C48.7902 48.2721 48.4919 48.5267 48.2495 48.8565C48.0118 49.1862 47.8324 49.5814 47.7112 50.0421C47.5899 50.5028 47.5293 51.0145 47.5293 51.577V52.6463C47.5293 53.1652 47.5827 53.6526 47.6893 54.1084C47.8009 54.5643 47.9682 54.9643 48.1913 55.3087C48.4143 55.653 48.698 55.9245 49.0423 56.1234C49.3867 56.3173 49.794 56.4143 50.2644 56.4143C50.8609 56.4143 51.3361 56.3198 51.6901 56.1306C52.0442 55.9415 52.3109 55.6699 52.4903 55.3159C52.6746 54.9619 52.8055 54.5376 52.8831 54.0429ZM55.6327 53.5628V53.3955C55.6327 52.8282 55.7152 52.302 55.8801 51.817C56.045 51.3272 56.2826 50.9029 56.5929 50.5441C56.9033 50.1804 57.2791 49.8991 57.7204 49.7003C58.1617 49.4966 58.6564 49.3947 59.2044 49.3947C59.7572 49.3947 60.2543 49.4966 60.6956 49.7003C61.1417 49.8991 61.52 50.1804 61.8303 50.5441C62.1456 50.9029 62.3856 51.3272 62.5505 51.817C62.7154 52.302 62.7978 52.8282 62.7978 53.3955V53.5628C62.7978 54.1302 62.7154 54.6564 62.5505 55.1413C62.3856 55.6263 62.1456 56.0506 61.8303 56.4143C61.52 56.7732 61.1442 57.0545 60.7029 57.2581C60.2664 57.457 59.7718 57.5564 59.2189 57.5564C58.6661 57.5564 58.169 57.457 57.7277 57.2581C57.2864 57.0545 56.9082 56.7732 56.5929 56.4143C56.2826 56.0506 56.045 55.6263 55.8801 55.1413C55.7152 54.6564 55.6327 54.1302 55.6327 53.5628ZM56.9785 53.3955V53.5628C56.9785 53.9557 57.0245 54.3266 57.1167 54.6758C57.2088 55.0201 57.347 55.3256 57.5313 55.5923C57.7204 55.8591 57.9556 56.07 58.2369 56.2252C58.5182 56.3755 58.8455 56.4507 59.2189 56.4507C59.5875 56.4507 59.91 56.3755 60.1864 56.2252C60.4677 56.07 60.7004 55.8591 60.8847 55.5923C61.069 55.3256 61.2072 55.0201 61.2993 54.6758C61.3963 54.3266 61.4448 53.9557 61.4448 53.5628V53.3955C61.4448 53.0076 61.3963 52.6415 61.2993 52.2971C61.2072 51.948 61.0666 51.64 60.8774 51.3733C60.6932 51.1017 60.4604 50.8884 60.1791 50.7332C59.9027 50.578 59.5778 50.5004 59.2044 50.5004C58.8358 50.5004 58.5109 50.578 58.2296 50.7332C57.9532 50.8884 57.7204 51.1017 57.5313 51.3733C57.347 51.64 57.2088 51.948 57.1167 52.2971C57.0245 52.6415 56.9785 53.0076 56.9785 53.3955ZM65.8239 51.1042V57.4109H64.4709V49.5402H65.7511L65.8239 51.1042ZM65.5475 53.1773L64.9219 53.1555C64.9267 52.6172 64.997 52.1201 65.1328 51.6643C65.2686 51.2036 65.4699 50.8035 65.7366 50.464C66.0033 50.1246 66.3355 49.8627 66.7331 49.6784C67.1308 49.4893 67.5915 49.3947 68.1152 49.3947C68.4838 49.3947 68.8233 49.4481 69.1336 49.5548C69.444 49.6566 69.7131 49.8191 69.9411 50.0421C70.169 50.2652 70.346 50.5513 70.4721 50.9005C70.5982 51.2497 70.6612 51.6716 70.6612 52.1662V57.4109H69.3155V52.2317C69.3155 51.8195 69.2452 51.4897 69.1045 51.2424C68.9687 50.9951 68.7748 50.8156 68.5226 50.7041C68.2704 50.5877 67.9746 50.5295 67.6351 50.5295C67.2375 50.5295 66.9053 50.5998 66.6386 50.7405C66.3719 50.8811 66.1585 51.0751 65.9985 51.3224C65.8384 51.5697 65.722 51.8534 65.6493 52.1735C65.5814 52.4887 65.5475 52.8233 65.5475 53.1773ZM70.6467 52.4353L69.7447 52.7118C69.7495 52.2802 69.8198 51.8655 69.9556 51.4679C70.0962 51.0702 70.2975 50.7162 70.5594 50.4059C70.8261 50.0955 71.1534 49.8506 71.5414 49.6712C71.9293 49.4869 72.3731 49.3947 72.8726 49.3947C73.2945 49.3947 73.6679 49.4505 73.9928 49.562C74.3225 49.6736 74.599 49.8457 74.822 50.0785C75.05 50.3064 75.2221 50.5998 75.3385 50.9587C75.4549 51.3176 75.5131 51.7443 75.5131 52.2389V57.4109H74.1601V52.2244C74.1601 51.7831 74.0898 51.4412 73.9491 51.1987C73.8133 50.9514 73.6194 50.7793 73.3672 50.6823C73.1199 50.5804 72.8241 50.5295 72.4797 50.5295C72.1839 50.5295 71.9221 50.5804 71.6941 50.6823C71.4662 50.7841 71.2747 50.9247 71.1195 51.1042C70.9643 51.2788 70.8455 51.48 70.763 51.7079C70.6855 51.9359 70.6467 52.1783 70.6467 52.4353ZM78.8956 51.0533V60.4369H77.5426V49.5402H78.7792L78.8956 51.0533ZM84.1985 53.4101V53.5628C84.1985 54.1351 84.1306 54.6661 83.9948 55.1559C83.859 55.6408 83.6602 56.0627 83.3983 56.4216C83.1413 56.7805 82.8236 57.0593 82.4454 57.2581C82.0671 57.457 81.6331 57.5564 81.1433 57.5564C80.6438 57.5564 80.2025 57.4739 79.8194 57.3091C79.4363 57.1442 79.1114 56.9041 78.8447 56.5889C78.5779 56.2737 78.3646 55.8954 78.2045 55.4541C78.0493 55.0128 77.9427 54.5158 77.8845 53.9629V53.1482C77.9427 52.5663 78.0518 52.045 78.2118 51.5843C78.3718 51.1236 78.5828 50.7308 78.8447 50.4059C79.1114 50.0761 79.4339 49.8263 79.8121 49.6566C80.1904 49.482 80.6268 49.3947 81.1215 49.3947C81.6161 49.3947 82.055 49.4917 82.4381 49.6857C82.8212 49.8748 83.1437 50.1464 83.4056 50.5004C83.6674 50.8544 83.8638 51.2788 83.9948 51.7734C84.1306 52.2632 84.1985 52.8088 84.1985 53.4101ZM82.8455 53.5628V53.4101C82.8455 53.0173 82.8042 52.6487 82.7218 52.3044C82.6394 51.9553 82.5108 51.6497 82.3363 51.3879C82.1665 51.1211 81.9483 50.9126 81.6816 50.7623C81.4149 50.6071 81.0972 50.5295 80.7287 50.5295C80.3892 50.5295 80.0934 50.5877 79.8412 50.7041C79.5939 50.8205 79.3829 50.9781 79.2084 51.1769C79.0338 51.3709 78.8907 51.594 78.7792 51.8461C78.6725 52.0935 78.5925 52.3505 78.5391 52.6172V54.5012C78.6361 54.8407 78.7719 55.1607 78.9465 55.4614C79.1211 55.7572 79.3538 55.9973 79.6448 56.1816C79.9358 56.361 80.3019 56.4507 80.7432 56.4507C81.1069 56.4507 81.4197 56.3755 81.6816 56.2252C81.9483 56.07 82.1665 55.8591 82.3363 55.5923C82.5108 55.3256 82.6394 55.0201 82.7218 54.6758C82.8042 54.3266 82.8455 53.9557 82.8455 53.5628ZM85.5587 53.5628V53.3955C85.5587 52.8282 85.6412 52.302 85.806 51.817C85.9709 51.3272 86.2086 50.9029 86.5189 50.5441C86.8293 50.1804 87.2051 49.8991 87.6464 49.7003C88.0877 49.4966 88.5824 49.3947 89.1303 49.3947C89.6832 49.3947 90.1803 49.4966 90.6216 49.7003C91.0677 49.8991 91.446 50.1804 91.7563 50.5441C92.0715 50.9029 92.3116 51.3272 92.4765 51.817C92.6414 52.302 92.7238 52.8282 92.7238 53.3955V53.5628C92.7238 54.1302 92.6414 54.6564 92.4765 55.1413C92.3116 55.6263 92.0715 56.0506 91.7563 56.4143C91.446 56.7732 91.0701 57.0545 90.6288 57.2581C90.1924 57.457 89.6977 57.5564 89.1449 57.5564C88.5921 57.5564 88.095 57.457 87.6537 57.2581C87.2124 57.0545 86.8341 56.7732 86.5189 56.4143C86.2086 56.0506 85.9709 55.6263 85.806 55.1413C85.6412 54.6564 85.5587 54.1302 85.5587 53.5628ZM86.9044 53.3955V53.5628C86.9044 53.9557 86.9505 54.3266 87.0427 54.6758C87.1348 55.0201 87.273 55.3256 87.4573 55.5923C87.6464 55.8591 87.8816 56.07 88.1629 56.2252C88.4441 56.3755 88.7715 56.4507 89.1449 56.4507C89.5135 56.4507 89.8359 56.3755 90.1124 56.2252C90.3936 56.07 90.6264 55.8591 90.8107 55.5923C90.995 55.3256 91.1332 55.0201 91.2253 54.6758C91.3223 54.3266 91.3708 53.9557 91.3708 53.5628V53.3955C91.3708 53.0076 91.3223 52.6415 91.2253 52.2971C91.1332 51.948 90.9925 51.64 90.8034 51.3733C90.6191 51.1017 90.3864 50.8884 90.1051 50.7332C89.8287 50.578 89.5038 50.5004 89.1303 50.5004C88.7618 50.5004 88.4369 50.578 88.1556 50.7332C87.8792 50.8884 87.6464 51.1017 87.4573 51.3733C87.273 51.64 87.1348 51.948 87.0427 52.2971C86.9505 52.6415 86.9044 53.0076 86.9044 53.3955ZM95.7571 51.2206V57.4109H94.4114V49.5402H95.6844L95.7571 51.2206ZM95.4371 53.1773L94.8769 53.1555C94.8818 52.6172 94.9618 52.1201 95.117 51.6643C95.2722 51.2036 95.4904 50.8035 95.7717 50.464C96.0529 50.1246 96.3876 49.8627 96.7755 49.6784C97.1683 49.4893 97.6023 49.3947 98.0776 49.3947C98.4655 49.3947 98.8147 49.4481 99.1251 49.5548C99.4354 49.6566 99.6997 49.8215 99.918 50.0494C100.141 50.2773 100.311 50.5732 100.427 50.9369C100.544 51.2957 100.602 51.7346 100.602 52.2535V57.4109H99.2487V52.2389C99.2487 51.8267 99.1881 51.497 99.0669 51.2497C98.9456 50.9975 98.7686 50.8156 98.5359 50.7041C98.3031 50.5877 98.017 50.5295 97.6775 50.5295C97.3429 50.5295 97.0374 50.5998 96.761 50.7405C96.4894 50.8811 96.2542 51.0751 96.0554 51.3224C95.8614 51.5697 95.7086 51.8534 95.5971 52.1735C95.4904 52.4887 95.4371 52.8233 95.4371 53.1773ZM105.912 57.5564C105.364 57.5564 104.867 57.4642 104.421 57.28C103.979 57.0908 103.599 56.8265 103.279 56.4871C102.963 56.1476 102.721 55.7451 102.551 55.2796C102.381 54.814 102.297 54.3048 102.297 53.752V53.4465C102.297 52.8063 102.391 52.2365 102.58 51.737C102.769 51.2327 103.026 50.8059 103.351 50.4568C103.676 50.1076 104.045 49.8433 104.457 49.6639C104.869 49.4845 105.296 49.3947 105.737 49.3947C106.3 49.3947 106.785 49.4917 107.192 49.6857C107.604 49.8797 107.941 50.1513 108.203 50.5004C108.465 50.8447 108.659 51.2521 108.785 51.7225C108.911 52.188 108.974 52.6972 108.974 53.2501V53.8538H103.097V52.7554H107.629V52.6536C107.609 52.3044 107.536 51.965 107.41 51.6352C107.289 51.3054 107.095 51.0339 106.828 50.8205C106.562 50.6071 106.198 50.5004 105.737 50.5004C105.432 50.5004 105.151 50.5659 104.893 50.6968C104.636 50.8229 104.416 51.012 104.232 51.2642C104.047 51.5164 103.904 51.8243 103.802 52.188C103.701 52.5517 103.65 52.9712 103.65 53.4465V53.752C103.65 54.1254 103.701 54.477 103.802 54.8067C103.909 55.1316 104.062 55.4178 104.261 55.6651C104.464 55.9124 104.709 56.1064 104.995 56.247C105.286 56.3877 105.616 56.458 105.985 56.458C106.46 56.458 106.862 56.361 107.192 56.167C107.522 55.973 107.81 55.7136 108.058 55.3887L108.872 56.0361C108.703 56.2931 108.487 56.538 108.225 56.7708C107.963 57.0035 107.641 57.1927 107.258 57.3381C106.879 57.4836 106.431 57.5564 105.912 57.5564ZM111.891 51.2206V57.4109H110.546V49.5402H111.819L111.891 51.2206ZM111.571 53.1773L111.011 53.1555C111.016 52.6172 111.096 52.1201 111.251 51.6643C111.406 51.2036 111.625 50.8035 111.906 50.464C112.187 50.1246 112.522 49.8627 112.91 49.6784C113.302 49.4893 113.736 49.3947 114.212 49.3947C114.6 49.3947 114.949 49.4481 115.259 49.5548C115.57 49.6566 115.834 49.8215 116.052 50.0494C116.275 50.2773 116.445 50.5732 116.561 50.9369C116.678 51.2957 116.736 51.7346 116.736 52.2535V57.4109H115.383V52.2389C115.383 51.8267 115.322 51.497 115.201 51.2497C115.08 50.9975 114.903 50.8156 114.67 50.7041C114.437 50.5877 114.151 50.5295 113.812 50.5295C113.477 50.5295 113.172 50.5998 112.895 50.7405C112.624 50.8811 112.388 51.0751 112.189 51.3224C111.996 51.5697 111.843 51.8534 111.731 52.1735C111.625 52.4887 111.571 52.8233 111.571 53.1773ZM122.075 49.5402V50.5732H117.82V49.5402H122.075ZM119.26 47.6271H120.606V55.4614C120.606 55.7281 120.647 55.9294 120.729 56.0652C120.812 56.201 120.919 56.2907 121.049 56.3343C121.18 56.378 121.321 56.3998 121.471 56.3998C121.583 56.3998 121.699 56.3901 121.821 56.3707C121.947 56.3464 122.041 56.327 122.104 56.3125L122.111 57.4109C122.005 57.4448 121.864 57.4764 121.69 57.5055C121.52 57.5394 121.314 57.5564 121.071 57.5564C120.742 57.5564 120.438 57.4909 120.162 57.36C119.886 57.229 119.665 57.0108 119.5 56.7053C119.34 56.3949 119.26 55.9779 119.26 55.4541V47.6271Z" fill="#005592"/>
<path d="M59.8091 91.9962H53.3169V90.7062H59.8091V91.9962ZM70.2475 91.9962H63.7553V90.7062H70.2475V91.9962ZM77.7326 95.6539C78.0155 95.6539 78.2899 95.6086 78.5558 95.5181C78.8274 95.4276 79.0679 95.3003 79.2772 95.1362C79.4865 94.9778 79.6534 94.7911 79.7779 94.5761C79.908 94.3554 79.9759 94.1178 79.9816 93.8632H81.4667C81.4611 94.2706 81.3536 94.661 81.1442 95.0344C80.9406 95.4021 80.6662 95.7246 80.321 96.0018C79.9759 96.2847 79.5799 96.511 79.1329 96.6808C78.686 96.8448 78.2192 96.9269 77.7326 96.9269C77.0368 96.9269 76.4286 96.8024 75.908 96.5535C75.3875 96.3045 74.9547 95.9679 74.6096 95.5436C74.2588 95.1249 73.9957 94.6412 73.8204 94.0924C73.645 93.5379 73.5573 92.9552 73.5573 92.3441V91.9877C73.5573 91.3823 73.645 90.8024 73.8204 90.248C73.9957 89.6935 74.2588 89.2041 74.6096 88.7798C74.9547 88.3611 75.3875 88.0273 75.908 87.7784C76.4286 87.5294 77.0368 87.405 77.7326 87.405C78.2758 87.405 78.7737 87.4927 79.2263 87.6681C79.6846 87.8378 80.0806 88.0697 80.4144 88.3639C80.7425 88.6638 81 89.0174 81.1867 89.4248C81.3734 89.8321 81.4667 90.2678 81.4667 90.7317H79.9816C79.9759 90.4545 79.9137 90.1942 79.7949 89.9509C79.6817 89.702 79.5261 89.4842 79.3281 89.2975C79.1301 89.1108 78.8925 88.9637 78.6153 88.8562C78.3437 88.7487 78.0495 88.6949 77.7326 88.6949C77.2461 88.6949 76.8359 88.7939 76.5021 88.992C76.174 89.1843 75.908 89.4361 75.7044 89.7473C75.5007 90.0641 75.3536 90.4177 75.2631 90.8081C75.1782 91.1985 75.1358 91.5917 75.1358 91.9877V92.3441C75.1358 92.7458 75.1782 93.1447 75.2631 93.5407C75.3536 93.9311 75.5007 94.2819 75.7044 94.5931C75.9024 94.9099 76.1655 95.1673 76.4936 95.3653C76.8274 95.5577 77.2404 95.6539 77.7326 95.6539ZM83.8175 92.0811C83.8175 91.4191 83.9137 90.8052 84.106 90.2395C84.2984 89.668 84.5756 89.173 84.9377 88.7543C85.2942 88.3357 85.7298 88.0075 86.2447 87.7699C86.7595 87.5266 87.3394 87.405 87.9844 87.405C88.635 87.405 89.2178 87.5266 89.7326 87.7699C90.2531 88.0075 90.6944 88.3357 91.0565 88.7543C91.413 89.173 91.6874 89.668 91.8797 90.2395C92.0721 90.8052 92.1683 91.4191 92.1683 92.0811V92.2678C92.1683 92.9297 92.0721 93.5436 91.8797 94.1093C91.6874 94.6751 91.413 95.1673 91.0565 95.586C90.6944 96.0047 90.256 96.3328 89.7411 96.5704C89.2263 96.8081 88.6463 96.9269 88.0014 96.9269C87.3507 96.9269 86.7652 96.8081 86.2447 96.5704C85.7298 96.3328 85.2942 96.0047 84.9377 95.586C84.5756 95.1673 84.2984 94.6751 84.106 94.1093C83.9137 93.5436 83.8175 92.9297 83.8175 92.2678V92.0811ZM85.3875 92.2678C85.3875 92.7204 85.4413 93.1532 85.5488 93.5662C85.6563 93.9736 85.8203 94.3328 86.041 94.644C86.256 94.9552 86.5275 95.2013 86.8557 95.3823C87.1838 95.5634 87.5657 95.6539 88.0014 95.6539C88.4314 95.6539 88.8076 95.5634 89.1301 95.3823C89.4582 95.2013 89.7326 94.9552 89.9533 94.644C90.1683 94.3328 90.3295 93.9736 90.437 93.5662C90.5445 93.1532 90.5982 92.7204 90.5982 92.2678V92.0811C90.5982 91.6341 90.5417 91.2069 90.4285 90.7996C90.321 90.3866 90.1598 90.0245 89.9448 89.7133C89.7241 89.4021 89.4497 89.156 89.1216 88.975C88.7991 88.7883 88.42 88.6949 87.9844 88.6949C87.5488 88.6949 87.1697 88.7883 86.8472 88.975C86.5247 89.156 86.256 89.4021 86.041 89.7133C85.8203 90.0245 85.6563 90.3866 85.5488 90.7996C85.4413 91.2069 85.3875 91.6341 85.3875 92.0811V92.2678ZM94.9434 83.7218H99.6364V95.3993H102.632V96.7571H94.9434V95.3993H98.0664V85.0881H94.9434V83.7218ZM104.694 92.0811C104.694 91.4191 104.791 90.8052 104.983 90.2395C105.175 89.668 105.453 89.173 105.815 88.7543C106.171 88.3357 106.607 88.0075 107.122 87.7699C107.636 87.5266 108.216 87.405 108.861 87.405C109.512 87.405 110.095 87.5266 110.61 87.7699C111.13 88.0075 111.571 88.3357 111.933 88.7543C112.29 89.173 112.564 89.668 112.757 90.2395C112.949 90.8052 113.045 91.4191 113.045 92.0811V92.2678C113.045 92.9297 112.949 93.5436 112.757 94.1093C112.564 94.6751 112.29 95.1673 111.933 95.586C111.571 96.0047 111.133 96.3328 110.618 96.5704C110.103 96.8081 109.523 96.9269 108.878 96.9269C108.228 96.9269 107.642 96.8081 107.122 96.5704C106.607 96.3328 106.171 96.0047 105.815 95.586C105.453 95.1673 105.175 94.6751 104.983 94.1093C104.791 93.5436 104.694 92.9297 104.694 92.2678V92.0811ZM106.264 92.2678C106.264 92.7204 106.318 93.1532 106.426 93.5662C106.533 93.9736 106.697 94.3328 106.918 94.644C107.133 94.9552 107.404 95.2013 107.733 95.3823C108.061 95.5634 108.443 95.6539 108.878 95.6539C109.308 95.6539 109.684 95.5634 110.007 95.3823C110.335 95.2013 110.61 94.9552 110.83 94.644C111.045 94.3328 111.206 93.9736 111.314 93.5662C111.421 93.1532 111.475 92.7204 111.475 92.2678V92.0811C111.475 91.6341 111.419 91.2069 111.305 90.7996C111.198 90.3866 111.037 90.0245 110.822 89.7133C110.601 89.4021 110.327 89.156 109.998 88.975C109.676 88.7883 109.297 88.6949 108.861 88.6949C108.426 88.6949 108.047 88.7883 107.724 88.975C107.402 89.156 107.133 89.4021 106.918 89.7133C106.697 90.0245 106.533 90.3866 106.426 90.7996C106.318 91.2069 106.264 91.6341 106.264 92.0811V92.2678ZM121.591 87.405C121.88 87.405 122.18 87.4248 122.491 87.4644C122.808 87.504 123.045 87.5577 123.204 87.6256L122.991 89.1617C122.686 89.0938 122.394 89.0457 122.117 89.0174C121.846 88.9835 121.56 88.9665 121.26 88.9665C120.875 88.9665 120.527 89.0146 120.216 89.1108C119.905 89.2013 119.634 89.3371 119.402 89.5181C119.192 89.6765 119.008 89.8717 118.85 90.1037C118.697 90.33 118.57 90.5846 118.468 90.8675V96.7571H116.89V87.5747H118.383L118.451 88.8052L118.46 89.0344C118.833 88.5309 119.28 88.1348 119.8 87.8463C120.327 87.5521 120.923 87.405 121.591 87.405ZM132.878 91.9962H126.386V90.7062H132.878V91.9962ZM136.443 100.288V87.5747H137.877L137.953 88.5761C138.078 88.4177 138.213 88.2763 138.361 88.1518C138.508 88.0217 138.666 87.9113 138.836 87.8208C139.073 87.685 139.336 87.5832 139.625 87.5153C139.919 87.4417 140.233 87.405 140.567 87.405C141.155 87.405 141.676 87.521 142.129 87.7529C142.581 87.9849 142.96 88.3074 143.266 88.7204C143.571 89.1334 143.803 89.6284 143.962 90.2055C144.12 90.777 144.199 91.405 144.199 92.0895V92.2678C144.199 92.9241 144.12 93.5379 143.962 94.1093C143.803 94.6751 143.571 95.1673 143.266 95.586C142.96 96.0047 142.581 96.3328 142.129 96.5704C141.682 96.8081 141.17 96.9269 140.592 96.9269C140.242 96.9269 139.914 96.8901 139.608 96.8165C139.308 96.743 139.037 96.6383 138.793 96.5025C138.646 96.4177 138.508 96.3243 138.377 96.2225C138.247 96.115 138.126 95.999 138.013 95.8745V100.288H136.443ZM142.629 92.0895C142.629 91.6426 142.578 91.2183 142.476 90.8166C142.38 90.4092 142.23 90.0499 142.027 89.7388C141.817 89.4333 141.554 89.19 141.237 89.0089C140.921 88.8279 140.542 88.7374 140.1 88.7374C139.857 88.7374 139.631 88.7656 139.421 88.8222C139.218 88.8788 139.034 88.9608 138.87 89.0683C138.689 89.1758 138.527 89.3088 138.386 89.4672C138.245 89.6256 138.12 89.801 138.013 89.9934V94.4149C138.109 94.5846 138.219 94.743 138.344 94.8901C138.468 95.0372 138.609 95.1617 138.768 95.2635C138.949 95.3823 139.15 95.4757 139.37 95.5436C139.597 95.6115 139.846 95.6454 140.117 95.6454C140.553 95.6454 140.929 95.5549 141.246 95.3738C141.563 95.1871 141.823 94.9382 142.027 94.627C142.23 94.3158 142.38 93.9566 142.476 93.5492C142.578 93.1419 142.629 92.7147 142.629 92.2678V92.0895ZM152.906 87.405C153.195 87.405 153.495 87.4248 153.806 87.4644C154.123 87.504 154.36 87.5577 154.519 87.6256L154.307 89.1617C154.001 89.0938 153.71 89.0457 153.433 89.0174C153.161 88.9835 152.875 88.9665 152.575 88.9665C152.191 88.9665 151.843 89.0146 151.532 89.1108C151.22 89.2013 150.949 89.3371 150.717 89.5181C150.508 89.6765 150.324 89.8717 150.165 90.1037C150.013 90.33 149.885 90.5846 149.783 90.8675V96.7571H148.205V87.5747H149.699L149.766 88.8052L149.775 89.0344C150.148 88.5309 150.595 88.1348 151.116 87.8463C151.642 87.5521 152.239 87.405 152.906 87.405ZM157.574 87.5747H162.267V95.3993H165.263V96.7571H157.574V95.3993H160.697V88.941H157.574V87.5747ZM160.493 85.1645C160.493 85.0287 160.513 84.9014 160.553 84.7826C160.598 84.6638 160.666 84.562 160.757 84.4771C160.83 84.4036 160.923 84.347 161.037 84.3074C161.155 84.2621 161.288 84.2395 161.435 84.2395C161.583 84.2395 161.713 84.2621 161.826 84.3074C161.939 84.347 162.032 84.4036 162.106 84.4771C162.196 84.5563 162.264 84.6553 162.31 84.7741C162.355 84.893 162.377 85.0231 162.377 85.1645C162.377 85.4191 162.298 85.6313 162.14 85.801C161.981 85.9707 161.747 86.0556 161.435 86.0556C161.119 86.0556 160.881 85.9707 160.723 85.801C160.57 85.6313 160.493 85.4191 160.493 85.1645ZM168.488 87.5747L168.53 88.4403C168.717 88.1178 168.96 87.8661 169.26 87.685C169.566 87.504 169.933 87.4106 170.363 87.405C170.607 87.405 170.824 87.4333 171.017 87.4898C171.215 87.5408 171.387 87.6171 171.534 87.719C171.642 87.7982 171.738 87.8944 171.823 88.0075C171.913 88.1207 171.99 88.248 172.052 88.3894C172.131 88.2593 172.225 88.1376 172.332 88.0245C172.44 87.9113 172.556 87.8123 172.68 87.7275C172.839 87.6313 173.014 87.5549 173.206 87.4983C173.404 87.4417 173.619 87.4106 173.851 87.405C174.168 87.405 174.454 87.4531 174.708 87.5492C174.963 87.6398 175.178 87.7755 175.353 87.9566C175.546 88.1603 175.693 88.4262 175.795 88.7543C175.897 89.0768 175.947 89.4587 175.947 89.9V96.7571H174.454V89.883C174.454 89.6907 174.431 89.5209 174.386 89.3738C174.341 89.2267 174.276 89.1051 174.191 89.0089C174.1 88.9184 173.987 88.8505 173.851 88.8052C173.721 88.76 173.568 88.7374 173.393 88.7374C173.206 88.7374 173.045 88.7628 172.909 88.8137C172.773 88.8647 172.66 88.9325 172.57 89.0174C172.479 89.1079 172.409 89.2126 172.358 89.3314C172.307 89.4446 172.273 89.5719 172.256 89.7133C172.256 89.7416 172.256 89.7699 172.256 89.7982C172.256 89.8208 172.256 89.8491 172.256 89.883V96.7571H170.762V89.8746C170.762 89.6822 170.74 89.5125 170.694 89.3654C170.655 89.2183 170.59 89.0966 170.499 89.0004C170.414 88.9099 170.307 88.8449 170.177 88.8052C170.052 88.76 169.905 88.7374 169.735 88.7374C169.549 88.7374 169.384 88.76 169.243 88.8052C169.107 88.8449 168.991 88.9043 168.895 88.9835C168.822 89.0457 168.756 89.1164 168.7 89.1956C168.649 89.2748 168.607 89.3597 168.573 89.4502V96.7571H167.079V87.5747H168.488ZM184.239 96.7571C184.177 96.6383 184.126 96.4912 184.086 96.3158C184.052 96.1348 184.027 95.9481 184.01 95.7557C183.851 95.9141 183.673 96.0641 183.475 96.2055C183.283 96.347 183.07 96.4714 182.838 96.5789C182.601 96.6864 182.349 96.7713 182.083 96.8335C181.817 96.8958 181.534 96.9269 181.235 96.9269C180.748 96.9269 180.307 96.8562 179.911 96.7147C179.52 96.5733 179.189 96.3809 178.918 96.1376C178.64 95.9 178.425 95.6171 178.273 95.289C178.126 94.9552 178.052 94.5959 178.052 94.2112C178.052 93.7076 178.151 93.2663 178.349 92.8873C178.553 92.5082 178.839 92.1914 179.206 91.9368C179.574 91.6878 180.015 91.5011 180.53 91.3767C181.051 91.2522 181.631 91.19 182.27 91.19H183.984V90.4686C183.984 90.1914 183.933 89.9424 183.831 89.7218C183.73 89.5011 183.585 89.3116 183.399 89.1532C183.212 89.0004 182.983 88.8816 182.711 88.7968C182.445 88.7119 182.145 88.6695 181.812 88.6695C181.5 88.6695 181.22 88.7091 180.971 88.7883C180.728 88.8675 180.522 88.9722 180.352 89.1023C180.182 89.2324 180.049 89.388 179.953 89.569C179.863 89.7444 179.817 89.9283 179.817 90.1207H178.239C178.244 89.7869 178.329 89.4587 178.493 89.1362C178.663 88.8137 178.906 88.5224 179.223 88.2621C179.534 88.0075 179.913 87.801 180.36 87.6426C180.813 87.4842 181.325 87.405 181.896 87.405C182.417 87.405 182.901 87.47 183.348 87.6002C183.795 87.7246 184.182 87.9142 184.51 88.1688C184.833 88.429 185.087 88.7515 185.274 89.1362C185.461 89.5209 185.554 89.9707 185.554 90.4856V94.7543C185.554 95.0598 185.582 95.3851 185.639 95.7303C185.696 96.0697 185.775 96.3668 185.877 96.6214V96.7571H184.239ZM181.464 95.5605C181.769 95.5605 182.055 95.5209 182.321 95.4417C182.587 95.3625 182.83 95.2579 183.051 95.1277C183.266 94.9976 183.452 94.8505 183.611 94.6864C183.769 94.5167 183.894 94.3413 183.984 94.1603V92.3017H182.524C181.981 92.3017 181.506 92.3498 181.099 92.446C180.697 92.5365 180.377 92.6779 180.14 92.8703C179.97 93.0061 179.84 93.1673 179.749 93.354C179.665 93.5407 179.622 93.7529 179.622 93.9905C179.622 94.2168 179.659 94.4262 179.732 94.6185C179.812 94.8109 179.928 94.975 180.08 95.1108C180.233 95.2522 180.425 95.3625 180.657 95.4417C180.889 95.5209 181.158 95.5605 181.464 95.5605ZM194.66 87.405C194.949 87.405 195.249 87.4248 195.56 87.4644C195.877 87.504 196.114 87.5577 196.273 87.6256L196.061 89.1617C195.755 89.0938 195.464 89.0457 195.186 89.0174C194.915 88.9835 194.629 88.9665 194.329 88.9665C193.945 88.9665 193.597 89.0146 193.285 89.1108C192.974 89.2013 192.703 89.3371 192.471 89.5181C192.261 89.6765 192.078 89.8717 191.919 90.1037C191.766 90.33 191.639 90.5846 191.537 90.8675V96.7571H189.959V87.5747H191.452L191.52 88.8052L191.529 89.0344C191.902 88.5309 192.349 88.1348 192.87 87.8463C193.396 87.5521 193.993 87.405 194.66 87.405ZM199.82 100.466C199.673 100.466 199.5 100.449 199.302 100.415C199.104 100.381 198.954 100.353 198.853 100.33L199.107 99.0485C199.249 99.0598 199.387 99.0683 199.523 99.074C199.664 99.0853 199.775 99.0909 199.854 99.0909C200.069 99.0909 200.264 99.0315 200.44 98.9127C200.621 98.7939 200.782 98.6525 200.923 98.4884C201.059 98.3243 201.175 98.1546 201.271 97.9792C201.373 97.8038 201.452 97.6595 201.509 97.5464L202.137 96.3243L198.182 87.5747H199.939L202.459 93.4983L202.867 94.61L203.3 93.5323L205.667 87.5747H207.424L202.765 98.1744C202.657 98.412 202.519 98.6638 202.349 98.9297C202.185 99.1956 201.984 99.4417 201.747 99.668C201.509 99.8943 201.232 100.084 200.915 100.237C200.598 100.389 200.233 100.466 199.82 100.466ZM212.677 95.7388C212.677 95.405 212.779 95.1192 212.983 94.8816C213.186 94.644 213.495 94.5252 213.908 94.5252C214.315 94.5252 214.623 94.644 214.833 94.8816C215.048 95.1136 215.155 95.3993 215.155 95.7388C215.155 96.0726 215.048 96.3526 214.833 96.5789C214.618 96.8052 214.309 96.9184 213.908 96.9184C213.5 96.9184 213.192 96.8052 212.983 96.5789C212.779 96.347 212.677 96.0669 212.677 95.7388ZM212.677 88.3045C212.677 87.9707 212.779 87.685 212.983 87.4474C213.186 87.2098 213.495 87.091 213.908 87.091C214.315 87.091 214.623 87.2098 214.833 87.4474C215.048 87.6794 215.155 87.9651 215.155 88.3045C215.155 88.6383 215.048 88.9184 214.833 89.1447C214.618 89.371 214.309 89.4842 213.908 89.4842C213.5 89.4842 213.192 89.371 212.983 89.1447C212.779 88.9127 212.677 88.6327 212.677 88.3045ZM234.92 93.2777H232.68L232.001 96.7571H230.787L231.466 93.2777H229.438V92.115H231.687L232.273 89.1108H230.083V87.9311H232.502L233.198 84.4007H234.411L233.715 87.9311H235.956L236.652 84.4007H237.865L237.169 87.9311H238.909V89.1108H236.94L236.355 92.115H238.273V93.2777H236.134L235.455 96.7571H234.241L234.92 93.2777ZM232.901 92.115H235.141L235.727 89.1108H233.486L232.901 92.115ZM241.396 90.562L242.015 84.4007H248.355V85.9283H243.339L242.991 89.2211C243.234 89.0796 243.526 88.9552 243.865 88.8477C244.205 88.7402 244.598 88.6864 245.045 88.6864C245.616 88.6864 246.128 88.7854 246.581 88.9835C247.034 89.1815 247.418 89.4587 247.735 89.8151C248.052 90.1772 248.295 90.6129 248.465 91.1221C248.635 91.6313 248.72 92.197 248.72 92.8194C248.72 93.4078 248.64 93.9538 248.482 94.4573C248.323 94.9608 248.086 95.3936 247.769 95.7557C247.447 96.1235 247.042 96.412 246.555 96.6214C246.069 96.825 245.497 96.9269 244.841 96.9269C244.338 96.9269 243.862 96.8562 243.415 96.7147C242.968 96.5733 242.572 96.3611 242.227 96.0782C241.877 95.7953 241.588 95.4389 241.362 95.0089C241.141 94.5789 241.002 94.0782 240.946 93.5068H242.439C242.536 94.2083 242.793 94.7402 243.212 95.1023C243.636 95.4644 244.179 95.6454 244.841 95.6454C245.215 95.6454 245.546 95.5803 245.834 95.4502C246.123 95.3144 246.366 95.1221 246.564 94.8731C246.756 94.6298 246.901 94.3356 246.997 93.9905C247.099 93.6454 247.15 93.2607 247.15 92.8364C247.15 92.4516 247.093 92.0924 246.98 91.7586C246.872 91.4248 246.714 91.1334 246.505 90.8845C246.295 90.6412 246.038 90.4488 245.732 90.3074C245.427 90.1659 245.076 90.0952 244.68 90.0952C244.42 90.0952 244.193 90.115 244.001 90.1546C243.814 90.1886 243.645 90.2395 243.492 90.3074C243.339 90.3753 243.195 90.4573 243.059 90.5535C242.929 90.6497 242.793 90.76 242.652 90.8845L241.396 90.562ZM253.107 89.8236H254.227C254.623 89.8236 254.971 89.7699 255.271 89.6624C255.577 89.5549 255.834 89.4078 256.043 89.2211C256.247 89.0344 256.403 88.8109 256.51 88.5507C256.618 88.2904 256.671 88.0047 256.671 87.6935C256.671 87.3258 256.623 87.0061 256.527 86.7345C256.431 86.4573 256.29 86.2282 256.103 86.0471C255.922 85.8717 255.695 85.7416 255.424 85.6567C255.158 85.5662 254.852 85.521 254.507 85.521C254.174 85.521 253.868 85.5719 253.591 85.6737C253.319 85.7699 253.087 85.9113 252.895 86.098C252.697 86.2847 252.544 86.5082 252.437 86.7685C252.329 87.0287 252.275 87.3201 252.275 87.6426H250.697C250.697 87.173 250.787 86.7317 250.968 86.3187C251.155 85.9 251.415 85.5351 251.749 85.2239C252.083 84.9184 252.482 84.678 252.946 84.5026C253.415 84.3215 253.936 84.231 254.507 84.231C255.062 84.231 255.568 84.3074 256.026 84.4601C256.485 84.6072 256.878 84.8279 257.206 85.1221C257.534 85.4163 257.789 85.7812 257.97 86.2169C258.151 86.6525 258.241 87.156 258.241 87.7275C258.241 87.9651 258.205 88.2112 258.131 88.4658C258.058 88.7204 257.944 88.9665 257.792 89.2041C257.639 89.4474 257.441 89.6765 257.198 89.8915C256.96 90.1009 256.674 90.2763 256.34 90.4177C256.742 90.5478 257.076 90.7176 257.342 90.9269C257.613 91.1362 257.831 91.371 257.995 91.6313C258.154 91.8915 258.264 92.1659 258.326 92.4545C258.394 92.743 258.428 93.0287 258.428 93.3116C258.428 93.8887 258.329 94.4007 258.131 94.8477C257.933 95.2946 257.659 95.6709 257.308 95.9764C256.957 96.2876 256.541 96.5252 256.06 96.6892C255.585 96.8477 255.07 96.9269 254.516 96.9269C253.973 96.9269 253.461 96.8505 252.98 96.6977C252.505 96.545 252.092 96.3215 251.741 96.0273C251.39 95.7331 251.11 95.3738 250.901 94.9495C250.697 94.5252 250.595 94.0414 250.595 93.4983H252.165C252.165 93.8208 252.219 94.115 252.326 94.3809C252.439 94.6468 252.598 94.8731 252.802 95.0598C253.005 95.2465 253.251 95.3908 253.54 95.4926C253.834 95.5945 254.159 95.6454 254.516 95.6454C254.872 95.6454 255.195 95.6001 255.483 95.5096C255.772 95.4134 256.018 95.2692 256.222 95.0768C256.425 94.8844 256.581 94.6468 256.688 94.3639C256.802 94.0754 256.858 93.7359 256.858 93.3456C256.858 92.9608 256.793 92.6299 256.663 92.3526C256.538 92.0697 256.363 91.8349 256.137 91.6482C255.905 91.4615 255.625 91.3229 255.297 91.2324C254.974 91.1419 254.618 91.0966 254.227 91.0966H253.107V89.8236ZM268.077 92.6072H269.8V93.8887H268.077V96.7571H266.507V93.8887H260.872V92.9637L266.405 84.4007H268.077V92.6072ZM262.612 92.6072H266.507V86.4884L266.253 86.9637L262.612 92.6072ZM278.049 93.5577H273.925L272.932 96.7571H271.362L275.35 84.4007H276.666L280.587 96.7571H279.025L278.049 93.5577ZM274.349 92.1914H277.633L276.004 86.8279L274.349 92.1914ZM282.572 96.7571V84.4007H286.247C286.756 84.4064 287.254 84.4743 287.741 84.6044C288.227 84.7289 288.66 84.9241 289.039 85.19C289.418 85.4559 289.721 85.7954 289.947 86.2084C290.173 86.6214 290.284 87.1164 290.278 87.6935C290.272 88.016 290.219 88.3102 290.117 88.5761C290.021 88.842 289.888 89.0796 289.718 89.289C289.543 89.504 289.347 89.685 289.132 89.8321C288.923 89.9792 288.669 90.1178 288.369 90.248V90.2734C288.68 90.347 288.98 90.4799 289.268 90.6723C289.557 90.8647 289.794 91.0768 289.981 91.3088C290.179 91.5634 290.332 91.8491 290.439 92.1659C290.553 92.4828 290.609 92.825 290.609 93.1928C290.615 93.7699 290.504 94.2791 290.278 94.7204C290.052 95.1617 289.749 95.5294 289.37 95.8236C288.991 96.1235 288.553 96.3526 288.055 96.511C287.562 96.6694 287.053 96.7515 286.527 96.7571H282.572ZM284.151 90.9778V95.4248H286.57C286.898 95.4191 287.209 95.3653 287.503 95.2635C287.797 95.156 288.057 95.0089 288.284 94.8222C288.51 94.6355 288.688 94.4064 288.818 94.1348C288.954 93.8632 289.022 93.5549 289.022 93.2098C289.028 92.859 288.968 92.5478 288.844 92.2762C288.725 92.0047 288.558 91.7727 288.343 91.5803C288.128 91.3936 287.876 91.2494 287.588 91.1475C287.299 91.0457 286.988 90.9891 286.654 90.9778H284.151ZM284.151 89.6709H286.34C286.635 89.6652 286.923 89.62 287.206 89.5351C287.489 89.4446 287.741 89.3144 287.961 89.1447C288.182 88.9806 288.36 88.777 288.496 88.5337C288.632 88.2904 288.7 88.0075 288.7 87.685C288.7 87.3399 288.632 87.0457 288.496 86.8024C288.366 86.5591 288.19 86.3583 287.97 86.1999C287.743 86.0471 287.483 85.934 287.189 85.8604C286.9 85.7869 286.603 85.7473 286.298 85.7416H284.151V89.6709ZM300.852 85.2833L295.735 96.7571H294.089L299.189 85.7756H292.502V84.4007H300.852V85.2833Z" fill="#005592"/>
</g>
<g filter="url(#filter2_d_1385_15131)">
<path d="M17.2803 88.1357C17.2803 79.16 24.5565 71.8839 33.5321 71.8839H320.648C329.624 71.8839 336.9 79.16 336.9 88.1357V142.308C336.9 151.284 329.624 158.56 320.648 158.56H33.5321C24.5565 158.56 17.2803 151.284 17.2803 142.308V88.1357Z" fill="white"/>
<path d="M33.5322 72.8995H320.648C329.063 72.8997 335.884 79.7213 335.884 88.1358V142.309C335.884 150.723 329.063 157.545 320.648 157.545H33.5322C25.1176 157.545 18.296 150.723 18.2959 142.309V88.1358C18.2959 79.7211 25.1176 72.8995 33.5322 72.8995Z" stroke="#DEE2ED" stroke-width="2.03148"/>
<path d="M22.6963 88.1357C22.6963 82.1519 27.5471 77.3011 33.5309 77.3011H82.5309C88.5146 77.3011 93.3654 82.1519 93.3654 88.1357V93.553C93.3654 99.5368 88.5146 104.388 82.5308 104.388H33.5308C27.5471 104.388 22.6963 99.5367 22.6963 93.553V88.1357Z" fill="#D6E3F8"/>
<path d="M41.8794 94.5985V95.8444H36.1023V94.5985H41.8794ZM36.4039 84.2903V95.8444H34.8723V84.2903H36.4039ZM45.0059 87.2582V95.8444H43.5299V87.2582H45.0059ZM43.4188 84.9807C43.4188 84.7426 43.4903 84.5416 43.6331 84.3776C43.7812 84.2136 43.9981 84.1316 44.2838 84.1316C44.5642 84.1316 44.7785 84.2136 44.9266 84.3776C45.08 84.5416 45.1567 84.7426 45.1567 84.9807C45.1567 85.2082 45.08 85.4039 44.9266 85.5679C44.7785 85.7266 44.5642 85.806 44.2838 85.806C43.9981 85.806 43.7812 85.7266 43.6331 85.5679C43.4903 85.4039 43.4188 85.2082 43.4188 84.9807ZM49.9735 94.5191L52.3224 87.2582H53.8222L50.7353 95.8444H49.7513L49.9735 94.5191ZM48.0135 87.2582L50.4338 94.5588L50.6004 95.8444H49.6164L46.5057 87.2582H48.0135ZM58.6867 96.0031C58.0889 96.0031 57.5466 95.9026 57.0599 95.7015C56.5785 95.4952 56.1632 95.2069 55.814 94.8366C55.4702 94.4662 55.2057 94.0271 55.0205 93.5193C54.8353 93.0114 54.7428 92.4559 54.7428 91.8528V91.5195C54.7428 90.8212 54.8459 90.1996 55.0522 89.6547C55.2586 89.1045 55.5389 88.639 55.8934 88.2581C56.2479 87.8771 56.6499 87.5888 57.0996 87.3931C57.5493 87.1973 58.0148 87.0995 58.4962 87.0995C59.1099 87.0995 59.6389 87.2053 60.0833 87.4169C60.533 87.6285 60.9007 87.9248 61.1864 88.3057C61.472 88.6813 61.6836 89.1257 61.8212 89.6388C61.9587 90.1467 62.0275 90.7022 62.0275 91.3053V91.9639H55.6157V90.7657H60.5595V90.6546C60.5383 90.2737 60.4589 89.9033 60.3214 89.5436C60.1891 89.1839 59.9775 88.8876 59.6866 88.6548C59.3956 88.4221 58.9988 88.3057 58.4962 88.3057C58.1629 88.3057 57.8561 88.3771 57.5757 88.5199C57.2953 88.6575 57.0546 88.8638 56.8536 89.1389C56.6526 89.414 56.4965 89.7499 56.3854 90.1467C56.2743 90.5435 56.2188 91.0011 56.2188 91.5195V91.8528C56.2188 92.2602 56.2743 92.6437 56.3854 93.0035C56.5018 93.3579 56.6684 93.67 56.8853 93.9398C57.1075 94.2097 57.3747 94.4213 57.6868 94.5747C58.0042 94.7281 58.364 94.8048 58.766 94.8048C59.2845 94.8048 59.7236 94.699 60.0833 94.4874C60.4431 94.2758 60.7578 93.9928 61.0276 93.6383L61.9164 94.3446C61.7313 94.6249 61.4958 94.8921 61.2102 95.146C60.9245 95.4 60.5727 95.6063 60.1547 95.765C59.7421 95.9237 59.2527 96.0031 58.6867 96.0031ZM74.6052 84.2903H76.1288V92.1068C76.1288 92.9744 75.9357 93.6965 75.5496 94.2731C75.1634 94.8498 74.6502 95.2836 74.0101 95.5746C73.3752 95.8602 72.6849 96.0031 71.9389 96.0031C71.156 96.0031 70.4471 95.8602 69.8122 95.5746C69.1827 95.2836 68.6827 94.8498 68.3124 94.2731C67.9474 93.6965 67.7649 92.9744 67.7649 92.1068V84.2903H69.2805V92.1068C69.2805 92.7099 69.3916 93.2071 69.6138 93.5986C69.836 93.9901 70.1455 94.2811 70.5423 94.4715C70.9443 94.662 71.4099 94.7572 71.9389 94.7572C72.4732 94.7572 72.9388 94.662 73.3356 94.4715C73.7376 94.2811 74.0498 93.9901 74.2719 93.5986C74.4941 93.2071 74.6052 92.7099 74.6052 92.1068V84.2903ZM80.1759 84.2903V95.8444H78.6444V84.2903H80.1759Z" fill="#005592"/>
<path d="M49.4034 134.028H42.321V132.621H49.4034V134.028ZM60.7908 134.028H53.7084V132.621H60.7908V134.028ZM68.9564 138.019C69.265 138.019 69.5643 137.969 69.8544 137.87C70.1507 137.772 70.413 137.633 70.6414 137.454C70.8697 137.281 71.0518 137.077 71.1876 136.843C71.3295 136.602 71.4036 136.343 71.4098 136.065H73.0299C73.0238 136.51 72.9065 136.935 72.6781 137.343C72.4559 137.744 72.1566 138.096 71.7801 138.398C71.4036 138.707 70.9716 138.954 70.484 139.139C69.9964 139.318 69.4872 139.407 68.9564 139.407C68.1972 139.407 67.5337 139.272 66.9659 139C66.3981 138.728 65.9259 138.361 65.5494 137.898C65.1668 137.442 64.8798 136.914 64.6884 136.315C64.4971 135.71 64.4014 135.075 64.4014 134.408V134.019C64.4014 133.359 64.4971 132.726 64.6884 132.121C64.8798 131.516 65.1668 130.983 65.5494 130.52C65.9259 130.063 66.3981 129.699 66.9659 129.427C67.5337 129.156 68.1972 129.02 68.9564 129.02C69.5489 129.02 70.092 129.115 70.5858 129.307C71.0857 129.492 71.5178 129.745 71.8819 130.066C72.2399 130.393 72.5207 130.779 72.7244 131.223C72.9281 131.668 73.0299 132.143 73.0299 132.649H71.4098C71.4036 132.347 71.3357 132.063 71.2061 131.797C71.0827 131.526 70.9129 131.288 70.6969 131.084C70.4809 130.881 70.2217 130.72 69.9192 130.603C69.623 130.486 69.302 130.427 68.9564 130.427C68.4256 130.427 67.9781 130.535 67.614 130.751C67.256 130.961 66.9659 131.236 66.7437 131.575C66.5215 131.921 66.3611 132.306 66.2623 132.732C66.1697 133.158 66.1234 133.587 66.1234 134.019V134.408C66.1234 134.846 66.1697 135.281 66.2623 135.713C66.3611 136.139 66.5215 136.522 66.7437 136.861C66.9597 137.207 67.2467 137.488 67.6047 137.704C67.9689 137.914 68.4194 138.019 68.9564 138.019ZM75.5944 134.121C75.5944 133.399 75.6993 132.729 75.9092 132.112C76.119 131.489 76.4215 130.949 76.8165 130.492C77.2053 130.035 77.6806 129.677 78.2422 129.418C78.8039 129.152 79.4365 129.02 80.1401 129.02C80.8499 129.02 81.4856 129.152 82.0473 129.418C82.6151 129.677 83.0965 130.035 83.4915 130.492C83.8804 130.949 84.1797 131.489 84.3896 132.112C84.5994 132.729 84.7043 133.399 84.7043 134.121V134.325C84.7043 135.047 84.5994 135.716 84.3896 136.334C84.1797 136.951 83.8804 137.488 83.4915 137.945C83.0965 138.401 82.6182 138.759 82.0565 139.018C81.4949 139.278 80.8622 139.407 80.1586 139.407C79.4489 139.407 78.81 139.278 78.2422 139.018C77.6806 138.759 77.2053 138.401 76.8165 137.945C76.4215 137.488 76.119 136.951 75.9092 136.334C75.6993 135.716 75.5944 135.047 75.5944 134.325V134.121ZM77.3072 134.325C77.3072 134.818 77.3658 135.291 77.4831 135.741C77.6003 136.186 77.7793 136.577 78.02 136.917C78.2546 137.256 78.5508 137.525 78.9088 137.722C79.2668 137.92 79.6834 138.019 80.1586 138.019C80.6277 138.019 81.0381 137.92 81.39 137.722C81.7479 137.525 82.0473 137.256 82.288 136.917C82.5225 136.577 82.6984 136.186 82.8157 135.741C82.933 135.291 82.9916 134.818 82.9916 134.325V134.121C82.9916 133.633 82.9299 133.167 82.8064 132.723C82.6892 132.272 82.5133 131.877 82.2787 131.538C82.038 131.199 81.7387 130.93 81.3807 130.733C81.0289 130.529 80.6154 130.427 80.1401 130.427C79.6649 130.427 79.2513 130.529 78.8995 130.733C78.5477 130.93 78.2546 131.199 78.02 131.538C77.7793 131.877 77.6003 132.272 77.4831 132.723C77.3658 133.167 77.3072 133.633 77.3072 134.121V134.325ZM87.7317 125.002H92.8514V137.741H96.1195V139.222H87.7317V137.741H91.1387V126.492H87.7317V125.002ZM98.3692 134.121C98.3692 133.399 98.4741 132.729 98.684 132.112C98.8938 131.489 99.1963 130.949 99.5913 130.492C99.9801 130.035 100.455 129.677 101.017 129.418C101.579 129.152 102.211 129.02 102.915 129.02C103.625 129.02 104.26 129.152 104.822 129.418C105.39 129.677 105.871 130.035 106.266 130.492C106.655 130.949 106.955 131.489 107.164 132.112C107.374 132.729 107.479 133.399 107.479 134.121V134.325C107.479 135.047 107.374 135.716 107.164 136.334C106.955 136.951 106.655 137.488 106.266 137.945C105.871 138.401 105.393 138.759 104.831 139.018C104.27 139.278 103.637 139.407 102.933 139.407C102.224 139.407 101.585 139.278 101.017 139.018C100.455 138.759 99.9801 138.401 99.5913 137.945C99.1963 137.488 98.8938 136.951 98.684 136.334C98.4741 135.716 98.3692 135.047 98.3692 134.325V134.121ZM100.082 134.325C100.082 134.818 100.141 135.291 100.258 135.741C100.375 136.186 100.554 136.577 100.795 136.917C101.029 137.256 101.326 137.525 101.684 137.722C102.042 137.92 102.458 138.019 102.933 138.019C103.403 138.019 103.813 137.92 104.165 137.722C104.523 137.525 104.822 137.256 105.063 136.917C105.297 136.577 105.473 136.186 105.59 135.741C105.708 135.291 105.766 134.818 105.766 134.325V134.121C105.766 133.633 105.705 133.167 105.581 132.723C105.464 132.272 105.288 131.877 105.054 131.538C104.813 131.199 104.513 130.93 104.155 130.733C103.804 130.529 103.39 130.427 102.915 130.427C102.44 130.427 102.026 130.529 101.674 130.733C101.323 130.93 101.029 131.199 100.795 131.538C100.554 131.877 100.375 132.272 100.258 132.723C100.141 133.167 100.082 133.633 100.082 134.121V134.325ZM116.802 129.02C117.117 129.02 117.444 129.041 117.783 129.085C118.129 129.128 118.388 129.186 118.561 129.261L118.33 130.936C117.996 130.862 117.678 130.81 117.376 130.779C117.08 130.742 116.768 130.723 116.441 130.723C116.021 130.723 115.642 130.776 115.302 130.881C114.963 130.979 114.666 131.128 114.413 131.325C114.185 131.498 113.984 131.711 113.812 131.964C113.645 132.211 113.506 132.488 113.395 132.797V139.222H111.673V129.205H113.302L113.377 130.547L113.386 130.797C113.793 130.248 114.281 129.816 114.849 129.501C115.423 129.18 116.074 129.02 116.802 129.02ZM129.115 134.028H122.033V132.621H129.115V134.028ZM133.004 143.074V129.205H134.568L134.652 130.297C134.787 130.125 134.935 129.97 135.096 129.835C135.256 129.693 135.429 129.572 135.614 129.473C135.874 129.325 136.161 129.214 136.475 129.14C136.796 129.06 137.139 129.02 137.503 129.02C138.145 129.02 138.713 129.146 139.206 129.399C139.7 129.652 140.114 130.004 140.447 130.455C140.78 130.905 141.033 131.445 141.206 132.075C141.379 132.698 141.465 133.383 141.465 134.13V134.325C141.465 135.041 141.379 135.71 141.206 136.334C141.033 136.951 140.78 137.488 140.447 137.945C140.114 138.401 139.7 138.759 139.206 139.018C138.719 139.278 138.16 139.407 137.531 139.407C137.148 139.407 136.79 139.367 136.457 139.287C136.13 139.207 135.833 139.093 135.568 138.944C135.408 138.852 135.256 138.75 135.114 138.639C134.972 138.522 134.84 138.395 134.716 138.259V143.074H133.004ZM139.753 134.13C139.753 133.643 139.697 133.18 139.586 132.742C139.481 132.297 139.318 131.905 139.095 131.566C138.867 131.232 138.58 130.967 138.234 130.77C137.889 130.572 137.475 130.473 136.994 130.473C136.728 130.473 136.482 130.504 136.253 130.566C136.031 130.628 135.83 130.717 135.651 130.834C135.454 130.952 135.278 131.097 135.124 131.27C134.969 131.442 134.834 131.634 134.716 131.844V136.667C134.821 136.852 134.942 137.025 135.077 137.185C135.213 137.346 135.367 137.482 135.54 137.593C135.738 137.722 135.957 137.824 136.198 137.898C136.444 137.972 136.716 138.009 137.012 138.009C137.488 138.009 137.898 137.911 138.244 137.713C138.589 137.509 138.873 137.238 139.095 136.898C139.318 136.559 139.481 136.167 139.586 135.723C139.697 135.278 139.753 134.812 139.753 134.325V134.13ZM150.964 129.02C151.279 129.02 151.606 129.041 151.946 129.085C152.291 129.128 152.55 129.186 152.723 129.261L152.492 130.936C152.158 130.862 151.841 130.81 151.538 130.779C151.242 130.742 150.93 130.723 150.603 130.723C150.183 130.723 149.804 130.776 149.464 130.881C149.125 130.979 148.829 131.128 148.576 131.325C148.347 131.498 148.147 131.711 147.974 131.964C147.807 132.211 147.668 132.488 147.557 132.797V139.222H145.835V129.205H147.465L147.539 130.547L147.548 130.797C147.955 130.248 148.443 129.816 149.011 129.501C149.585 129.18 150.236 129.02 150.964 129.02ZM156.056 129.205H161.176V137.741H164.444V139.222H156.056V137.741H159.463V130.696H156.056V129.205ZM159.241 126.576C159.241 126.428 159.262 126.289 159.306 126.159C159.355 126.029 159.429 125.918 159.528 125.826C159.608 125.746 159.71 125.684 159.833 125.641C159.963 125.591 160.108 125.567 160.269 125.567C160.429 125.567 160.571 125.591 160.694 125.641C160.818 125.684 160.92 125.746 161 125.826C161.099 125.912 161.173 126.02 161.222 126.15C161.271 126.279 161.296 126.421 161.296 126.576C161.296 126.853 161.21 127.085 161.037 127.27C160.864 127.455 160.608 127.548 160.269 127.548C159.923 127.548 159.664 127.455 159.491 127.27C159.324 127.085 159.241 126.853 159.241 126.576ZM167.962 129.205L168.008 130.149C168.212 129.797 168.477 129.523 168.804 129.325C169.138 129.128 169.539 129.026 170.008 129.02C170.273 129.02 170.511 129.051 170.721 129.112C170.937 129.168 171.125 129.251 171.286 129.362C171.403 129.449 171.508 129.554 171.6 129.677C171.699 129.801 171.782 129.939 171.85 130.094C171.937 129.952 172.039 129.819 172.156 129.696C172.273 129.572 172.4 129.464 172.535 129.372C172.708 129.267 172.9 129.183 173.109 129.122C173.325 129.06 173.56 129.026 173.813 129.02C174.159 129.02 174.47 129.072 174.748 129.177C175.026 129.276 175.26 129.424 175.452 129.622C175.662 129.844 175.822 130.134 175.933 130.492C176.044 130.844 176.1 131.26 176.1 131.742V139.222H174.47V131.723C174.47 131.513 174.446 131.328 174.396 131.168C174.347 131.007 174.276 130.874 174.183 130.77C174.085 130.671 173.961 130.597 173.813 130.547C173.671 130.498 173.504 130.473 173.313 130.473C173.109 130.473 172.934 130.501 172.785 130.557C172.637 130.612 172.514 130.686 172.415 130.779C172.316 130.878 172.239 130.992 172.184 131.121C172.128 131.245 172.091 131.384 172.073 131.538C172.073 131.569 172.073 131.6 172.073 131.631C172.073 131.655 172.073 131.686 172.073 131.723V139.222H170.443V131.714C170.443 131.504 170.418 131.319 170.369 131.158C170.326 130.998 170.255 130.865 170.156 130.76C170.064 130.662 169.946 130.591 169.804 130.547C169.669 130.498 169.508 130.473 169.323 130.473C169.119 130.473 168.94 130.498 168.786 130.547C168.638 130.591 168.511 130.655 168.406 130.742C168.326 130.81 168.255 130.887 168.193 130.973C168.138 131.06 168.092 131.152 168.055 131.251V139.222H166.425V129.205H167.962ZM185.145 139.222C185.077 139.093 185.021 138.932 184.978 138.741C184.941 138.543 184.913 138.34 184.895 138.13C184.722 138.303 184.528 138.466 184.312 138.62C184.102 138.775 183.87 138.91 183.617 139.028C183.358 139.145 183.083 139.238 182.793 139.305C182.503 139.373 182.195 139.407 181.868 139.407C181.337 139.407 180.855 139.33 180.423 139.176C179.997 139.022 179.636 138.812 179.34 138.546C179.038 138.287 178.803 137.979 178.637 137.621C178.476 137.256 178.396 136.864 178.396 136.445C178.396 135.895 178.504 135.414 178.72 135C178.942 134.587 179.254 134.241 179.655 133.964C180.056 133.692 180.537 133.488 181.099 133.353C181.667 133.217 182.3 133.149 182.997 133.149H184.867V132.362C184.867 132.06 184.812 131.788 184.701 131.547C184.589 131.307 184.432 131.1 184.228 130.927C184.025 130.76 183.775 130.631 183.478 130.538C183.188 130.446 182.861 130.399 182.497 130.399C182.158 130.399 181.852 130.442 181.581 130.529C181.315 130.615 181.09 130.729 180.905 130.871C180.72 131.013 180.575 131.183 180.47 131.381C180.371 131.572 180.321 131.773 180.321 131.982H178.599C178.606 131.618 178.698 131.26 178.877 130.908C179.062 130.557 179.328 130.239 179.673 129.955C180.013 129.677 180.426 129.452 180.914 129.279C181.408 129.106 181.966 129.02 182.59 129.02C183.158 129.02 183.685 129.091 184.173 129.233C184.66 129.369 185.083 129.575 185.441 129.853C185.793 130.137 186.071 130.489 186.274 130.908C186.478 131.328 186.58 131.819 186.58 132.38V137.037C186.58 137.371 186.611 137.725 186.672 138.102C186.734 138.472 186.821 138.796 186.932 139.074V139.222H185.145ZM182.118 137.917C182.451 137.917 182.763 137.874 183.053 137.787C183.343 137.701 183.608 137.587 183.849 137.445C184.083 137.303 184.287 137.142 184.46 136.963C184.633 136.778 184.768 136.587 184.867 136.389V134.362H183.275C182.682 134.362 182.164 134.414 181.719 134.519C181.281 134.618 180.932 134.772 180.673 134.982C180.488 135.13 180.346 135.306 180.247 135.51C180.155 135.713 180.109 135.945 180.109 136.204C180.109 136.451 180.149 136.679 180.229 136.889C180.315 137.099 180.442 137.278 180.608 137.426C180.775 137.58 180.985 137.701 181.238 137.787C181.491 137.874 181.784 137.917 182.118 137.917ZM196.514 129.02C196.829 129.02 197.156 129.041 197.495 129.085C197.841 129.128 198.1 129.186 198.273 129.261L198.041 130.936C197.708 130.862 197.39 130.81 197.088 130.779C196.792 130.742 196.48 130.723 196.153 130.723C195.733 130.723 195.353 130.776 195.014 130.881C194.675 130.979 194.378 131.128 194.125 131.325C193.897 131.498 193.696 131.711 193.523 131.964C193.357 132.211 193.218 132.488 193.107 132.797V139.222H191.385V129.205H193.014L193.088 130.547L193.098 130.797C193.505 130.248 193.993 129.816 194.56 129.501C195.134 129.18 195.785 129.02 196.514 129.02ZM202.143 143.268C201.982 143.268 201.794 143.249 201.578 143.212C201.362 143.175 201.198 143.144 201.087 143.12L201.365 141.722C201.519 141.734 201.671 141.743 201.819 141.75C201.973 141.762 202.093 141.768 202.18 141.768C202.414 141.768 202.627 141.703 202.819 141.574C203.016 141.444 203.192 141.29 203.346 141.111C203.494 140.932 203.621 140.747 203.726 140.555C203.837 140.364 203.923 140.207 203.985 140.083L204.67 138.75L200.356 129.205H202.272L205.022 135.667L205.466 136.88L205.938 135.704L208.521 129.205H210.438L205.355 140.768C205.238 141.027 205.087 141.302 204.902 141.592C204.723 141.882 204.503 142.151 204.244 142.398C203.985 142.645 203.683 142.851 203.337 143.018C202.991 143.185 202.593 143.268 202.143 143.268ZM216.169 138.111C216.169 137.747 216.28 137.435 216.502 137.176C216.724 136.917 217.06 136.787 217.511 136.787C217.955 136.787 218.292 136.917 218.52 137.176C218.755 137.429 218.872 137.741 218.872 138.111C218.872 138.475 218.755 138.781 218.52 139.028C218.286 139.275 217.949 139.398 217.511 139.398C217.067 139.398 216.73 139.275 216.502 139.028C216.28 138.775 216.169 138.469 216.169 138.111ZM216.169 130.001C216.169 129.637 216.28 129.325 216.502 129.066C216.724 128.807 217.06 128.677 217.511 128.677C217.955 128.677 218.292 128.807 218.52 129.066C218.755 129.319 218.872 129.631 218.872 130.001C218.872 130.365 218.755 130.671 218.52 130.918C218.286 131.165 217.949 131.288 217.511 131.288C217.067 131.288 216.73 131.165 216.502 130.918C216.28 130.665 216.169 130.359 216.169 130.001ZM240.434 135.426H237.99L237.249 139.222H235.925L236.666 135.426H234.453V134.158H236.907L237.545 130.881H235.157V129.594H237.795L238.555 125.742H239.878L239.119 129.594H241.563L242.323 125.742H243.647L242.887 129.594H244.785V130.881H242.637L241.999 134.158H244.091V135.426H241.758L241.017 139.222H239.693L240.434 135.426ZM238.231 134.158H240.675L241.313 130.881H238.869L238.231 134.158ZM247.498 132.464L248.174 125.742H255.089V127.409H249.618L249.238 131.001C249.504 130.847 249.822 130.711 250.192 130.594C250.562 130.476 250.991 130.418 251.479 130.418C252.102 130.418 252.661 130.526 253.155 130.742C253.648 130.958 254.068 131.26 254.414 131.649C254.759 132.044 255.025 132.519 255.21 133.075C255.395 133.63 255.488 134.248 255.488 134.926C255.488 135.568 255.401 136.164 255.228 136.713C255.056 137.263 254.796 137.735 254.451 138.13C254.099 138.531 253.658 138.846 253.127 139.074C252.596 139.296 251.973 139.407 251.257 139.407C250.707 139.407 250.189 139.33 249.701 139.176C249.214 139.022 248.782 138.79 248.405 138.482C248.022 138.173 247.708 137.784 247.461 137.315C247.22 136.846 247.069 136.3 247.007 135.676H248.637C248.742 136.442 249.022 137.022 249.479 137.417C249.942 137.812 250.534 138.009 251.257 138.009C251.664 138.009 252.025 137.938 252.34 137.796C252.655 137.648 252.92 137.438 253.136 137.167C253.346 136.901 253.503 136.581 253.608 136.204C253.719 135.828 253.775 135.408 253.775 134.945C253.775 134.525 253.713 134.133 253.59 133.769C253.472 133.405 253.3 133.087 253.071 132.816C252.843 132.55 252.562 132.34 252.229 132.186C251.895 132.032 251.513 131.955 251.081 131.955C250.797 131.955 250.55 131.976 250.34 132.019C250.136 132.056 249.951 132.112 249.785 132.186C249.618 132.26 249.461 132.35 249.312 132.455C249.17 132.559 249.022 132.68 248.868 132.816L247.498 132.464ZM260.274 131.658H261.496C261.928 131.658 262.308 131.6 262.635 131.482C262.968 131.365 263.249 131.205 263.477 131.001C263.699 130.797 263.869 130.554 263.986 130.27C264.104 129.986 264.162 129.674 264.162 129.335C264.162 128.933 264.11 128.585 264.005 128.288C263.9 127.986 263.746 127.736 263.542 127.539C263.345 127.347 263.098 127.205 262.801 127.113C262.511 127.014 262.178 126.965 261.802 126.965C261.437 126.965 261.104 127.02 260.802 127.131C260.505 127.236 260.252 127.39 260.043 127.594C259.826 127.798 259.66 128.042 259.543 128.325C259.425 128.609 259.367 128.927 259.367 129.279H257.645C257.645 128.767 257.743 128.285 257.941 127.835C258.145 127.378 258.429 126.98 258.793 126.64C259.157 126.307 259.592 126.045 260.098 125.854C260.61 125.656 261.178 125.557 261.802 125.557C262.406 125.557 262.959 125.641 263.459 125.807C263.959 125.968 264.388 126.208 264.746 126.529C265.104 126.85 265.381 127.248 265.579 127.724C265.776 128.199 265.875 128.748 265.875 129.372C265.875 129.631 265.835 129.899 265.755 130.177C265.674 130.455 265.551 130.723 265.384 130.983C265.218 131.248 265.002 131.498 264.736 131.732C264.477 131.961 264.165 132.152 263.801 132.306C264.239 132.448 264.604 132.634 264.894 132.862C265.19 133.09 265.428 133.346 265.607 133.63C265.779 133.914 265.9 134.214 265.968 134.528C266.042 134.843 266.079 135.155 266.079 135.463C266.079 136.093 265.971 136.652 265.755 137.139C265.539 137.627 265.239 138.037 264.857 138.37C264.474 138.71 264.02 138.969 263.496 139.148C262.977 139.321 262.416 139.407 261.811 139.407C261.218 139.407 260.66 139.324 260.135 139.157C259.617 138.991 259.166 138.747 258.783 138.426C258.401 138.105 258.095 137.713 257.867 137.25C257.645 136.787 257.534 136.26 257.534 135.667H259.246C259.246 136.019 259.305 136.34 259.422 136.63C259.546 136.92 259.718 137.167 259.941 137.371C260.163 137.574 260.431 137.732 260.746 137.843C261.067 137.954 261.422 138.009 261.811 138.009C262.2 138.009 262.551 137.96 262.866 137.861C263.181 137.756 263.449 137.599 263.672 137.389C263.894 137.179 264.064 136.92 264.181 136.611C264.304 136.297 264.366 135.926 264.366 135.5C264.366 135.081 264.295 134.72 264.153 134.417C264.017 134.109 263.826 133.852 263.579 133.649C263.326 133.445 263.021 133.294 262.663 133.195C262.311 133.096 261.922 133.047 261.496 133.047H260.274V131.658ZM276.605 134.695H278.485V136.093H276.605V139.222H274.892V136.093H268.745V135.084L274.781 125.742H276.605V134.695ZM270.643 134.695H274.892V128.02L274.615 128.538L270.643 134.695ZM287.483 135.732H282.984L281.901 139.222H280.188L284.539 125.742H285.974L290.252 139.222H288.548L287.483 135.732ZM283.447 134.241H287.03L285.252 128.39L283.447 134.241ZM292.418 139.222V125.742H296.427C296.982 125.749 297.525 125.823 298.056 125.965C298.587 126.1 299.059 126.313 299.473 126.603C299.886 126.894 300.216 127.264 300.463 127.714C300.71 128.165 300.83 128.705 300.824 129.335C300.818 129.686 300.759 130.007 300.648 130.297C300.543 130.587 300.398 130.847 300.213 131.075C300.022 131.31 299.809 131.507 299.574 131.668C299.346 131.828 299.068 131.979 298.741 132.121V132.149C299.081 132.229 299.408 132.374 299.723 132.584C300.037 132.794 300.297 133.025 300.5 133.279C300.716 133.556 300.883 133.868 301 134.214C301.124 134.559 301.185 134.933 301.185 135.334C301.191 135.963 301.071 136.519 300.824 137C300.577 137.482 300.247 137.883 299.834 138.204C299.42 138.531 298.942 138.781 298.399 138.954C297.862 139.127 297.306 139.216 296.732 139.222H292.418ZM294.14 132.917V137.769H296.778C297.136 137.762 297.476 137.704 297.797 137.593C298.118 137.475 298.402 137.315 298.649 137.111C298.895 136.908 299.09 136.658 299.232 136.361C299.38 136.065 299.454 135.729 299.454 135.352C299.46 134.97 299.395 134.63 299.26 134.334C299.13 134.038 298.948 133.785 298.713 133.575C298.479 133.371 298.204 133.214 297.889 133.103C297.575 132.992 297.235 132.93 296.871 132.917H294.14ZM294.14 131.492H296.528C296.849 131.486 297.164 131.436 297.473 131.344C297.781 131.245 298.056 131.103 298.297 130.918C298.537 130.739 298.732 130.517 298.88 130.251C299.028 129.986 299.102 129.677 299.102 129.325C299.102 128.949 299.028 128.628 298.88 128.362C298.738 128.097 298.547 127.878 298.306 127.705C298.059 127.539 297.775 127.415 297.454 127.335C297.14 127.255 296.815 127.211 296.482 127.205H294.14V131.492ZM312.36 126.705L306.777 139.222H304.981L310.545 127.242H303.25V125.742H312.36V126.705Z" fill="#005592"/>
</g>
<defs>
<filter id="filter0_dd_1385_15131" x="19.6797" y="2.45571e-05" width="314.35" height="122.63" filterUnits="userSpaceOnUse" color-interpolation-filters="sRGB">
<feFlood flood-opacity="0" result="BackgroundImageFix"/>
<feColorMatrix in="SourceAlpha" type="matrix" values="0 0 0 0 0 0 0 0 0 0 0 0 0 0 0 0 0 0 127 0" result="hardAlpha"/>
<feMorphology radius="3.6" operator="erode" in="SourceAlpha" result="effect1_dropShadow_1385_15131"/>
<feOffset dy="12"/>
<feGaussianBlur stdDeviation="9"/>
<feComposite in2="hardAlpha" operator="out"/>
<feColorMatrix type="matrix" values="0 0 0 0 0 0 0 0 0 0 0 0 0 0 0 0 0 0 0.1 0"/>
<feBlend mode="normal" in2="BackgroundImageFix" result="effect1_dropShadow_1385_15131"/>
<feColorMatrix in="SourceAlpha" type="matrix" values="0 0 0 0 0 0 0 0 0 0 0 0 0 0 0 0 0 0 127 0" result="hardAlpha"/>
<feMorphology radius="6" operator="erode" in="SourceAlpha" result="effect2_dropShadow_1385_15131"/>
<feOffset dy="24"/>
<feGaussianBlur stdDeviation="15"/>
<feComposite in2="hardAlpha" operator="out"/>
<feColorMatrix type="matrix" values="0 0 0 0 0 0 0 0 0 0 0 0 0 0 0 0 0 0 0.1 0"/>
<feBlend mode="normal" in2="effect1_dropShadow_1385_15131" result="effect2_dropShadow_1385_15131"/>
<feBlend mode="normal" in="SourceGraphic" in2="effect2_dropShadow_1385_15131" result="shape"/>
</filter>
<filter id="filter1_dd_1385_15131" x="3.96328" y="32.3905" width="345.784" height="134.893" filterUnits="userSpaceOnUse" color-interpolation-filters="sRGB">
<feFlood flood-opacity="0" result="BackgroundImageFix"/>
<feColorMatrix in="SourceAlpha" type="matrix" values="0 0 0 0 0 0 0 0 0 0 0 0 0 0 0 0 0 0 127 0" result="hardAlpha"/>
<feMorphology radius="3.96" operator="erode" in="SourceAlpha" result="effect1_dropShadow_1385_15131"/>
<feOffset dy="13.2"/>
<feGaussianBlur stdDeviation="9.9"/>
<feComposite in2="hardAlpha" operator="out"/>
<feColorMatrix type="matrix" values="0 0 0 0 0 0 0 0 0 0 0 0 0 0 0 0 0 0 0.1 0"/>
<feBlend mode="normal" in2="BackgroundImageFix" result="effect1_dropShadow_1385_15131"/>
<feColorMatrix in="SourceAlpha" type="matrix" values="0 0 0 0 0 0 0 0 0 0 0 0 0 0 0 0 0 0 127 0" result="hardAlpha"/>
<feMorphology radius="6.6" operator="erode" in="SourceAlpha" result="effect2_dropShadow_1385_15131"/>
<feOffset dy="26.4"/>
<feGaussianBlur stdDeviation="16.5"/>
<feComposite in2="hardAlpha" operator="out"/>
<feColorMatrix type="matrix" values="0 0 0 0 0 0 0 0 0 0 0 0 0 0 0 0 0 0 0.1 0"/>
<feBlend mode="normal" in2="effect1_dropShadow_1385_15131" result="effect2_dropShadow_1385_15131"/>
<feBlend mode="normal" in="SourceGraphic" in2="effect2_dropShadow_1385_15131" result="shape"/>
</filter>
<filter id="filter2_d_1385_15131" x="0.000273228" y="69.0039" width="354.179" height="121.236" filterUnits="userSpaceOnUse" color-interpolation-filters="sRGB">
<feFlood flood-opacity="0" result="BackgroundImageFix"/>
<feColorMatrix in="SourceAlpha" type="matrix" values="0 0 0 0 0 0 0 0 0 0 0 0 0 0 0 0 0 0 127 0" result="hardAlpha"/>
<feMorphology radius="4.32" operator="erode" in="SourceAlpha" result="effect1_dropShadow_1385_15131"/>
<feOffset dy="14.4"/>
<feGaussianBlur stdDeviation="10.8"/>
<feComposite in2="hardAlpha" operator="out"/>
<feColorMatrix type="matrix" values="0 0 0 0 0 0 0 0 0 0 0 0 0 0 0 0 0 0 0.1 0"/>
<feBlend mode="normal" in2="BackgroundImageFix" result="effect1_dropShadow_1385_15131"/>
<feBlend mode="normal" in="SourceGraphic" in2="effect1_dropShadow_1385_15131" result="shape"/>
</filter>
</defs>
</svg>
